<svg xmlns="http://www.w3.org/2000/svg" viewBox="0 0 325 120"><defs><style>.cls-1{fill:#15bae0;}.cls-2{fill:#243133;}</style></defs><title>iconos</title><g id="Layer_1" data-name="Layer 1"><path class="cls-1" d="M223.13,24.67l0,0a3,3,0,0,0,2.13.87,2.91,2.91,0,0,0,2.1-.87l0,0a3.94,3.94,0,0,0,.37-.32,3.46,3.46,0,0,0,1.06-2.56,3.38,3.38,0,0,0-1.06-2.49h0a3.47,3.47,0,0,0-2.5-1,3.5,3.5,0,0,0-2.53,1,3.38,3.38,0,0,0-1.06,2.49,3.45,3.45,0,0,0,1.06,2.56A3.83,3.83,0,0,0,223.13,24.67Z"/><path class="cls-2" d="M68.24,13.62a2.19,2.19,0,0,0-3.86.77L53.53,54.82,42.43,26.14a.86.86,0,0,0-.8-.55H40.06a.86.86,0,0,0-.8.55L28.2,54.82,17.31,14.38a2.19,2.19,0,0,0-4.24,1.14L25.62,62.21a.85.85,0,0,0,.83.63h2.74a.85.85,0,0,0,.8-.55L40.85,33.8,51.71,62.29a.85.85,0,0,0,.8.55h2.74a.85.85,0,0,0,.83-.63L68.62,15.52A2.18,2.18,0,0,0,68.24,13.62Z"/><path class="cls-2" d="M85.63,28.22A17.47,17.47,0,0,0,68.19,45.7,17.45,17.45,0,0,0,98,58l.79-.8a2.32,2.32,0,1,0-3.4-3.15c-.21.23-.42.46-.64.67a12.88,12.88,0,0,1-17.84.38,13,13,0,0,1-4.13-9.23q0-.46,0-.88h28.88a.86.86,0,0,0,.86-.86A14.92,14.92,0,0,0,98,33.33,16.92,16.92,0,0,0,85.63,28.22ZM73.78,40.54a13.51,13.51,0,0,1,2.74-3.95,12.85,12.85,0,0,1,18.22,0,12.06,12.06,0,0,1,2.64,3.94Z"/><path class="cls-2" d="M158,12.21a.86.86,0,0,0-.86.86V55.45l-30.6-42.88a.86.86,0,0,0-.7-.36H122.4a.86.86,0,0,0-.86.86v47a2.22,2.22,0,0,0,4.45,0v-40L155.5,61.46a2,2,0,0,0,1.61.83h2.5a2,2,0,0,0,2-2V15.8A3.6,3.6,0,0,0,158,12.21Z"/><path class="cls-2" d="M197.07,30.89a.86.86,0,0,0-.86.86v1.85l-.25-.26A17.47,17.47,0,0,0,166.15,45.7,17.45,17.45,0,0,0,196,58l.24-.25v2.33a2.22,2.22,0,0,0,4.45,0V34.48A3.6,3.6,0,0,0,197.07,30.89Zm-.86,12.19v5.21a12.9,12.9,0,0,1-21.72,6.49,12.72,12.72,0,0,1-3.77-9.06,12.88,12.88,0,0,1,25.48-2.64Z"/><path class="cls-2" d="M213.56,35.34h5.2a.86.86,0,0,0,.86-.86A3.6,3.6,0,0,0,216,30.89h-2.46V21.82A3.56,3.56,0,0,0,210,18.27a.86.86,0,0,0-.86.86V30.89h-5.2a.86.86,0,0,0-.86.86v2.74a.86.86,0,0,0,.86.86h5.2V60.08a2.21,2.21,0,1,0,4.41,0Z"/><path class="cls-2" d="M275.13,28.22A17.47,17.47,0,0,0,257.68,45.7,17.45,17.45,0,0,0,287.49,58l.79-.8a2.32,2.32,0,1,0-3.4-3.15c-.21.23-.42.46-.64.67a12.88,12.88,0,0,1-17.84.38,13,13,0,0,1-4.13-9.23q0-.46,0-.88h28.88a.86.86,0,0,0,.86-.86,14.92,14.92,0,0,0-4.53-10.83A16.92,16.92,0,0,0,275.13,28.22ZM263.28,40.54A13.51,13.51,0,0,1,266,36.59a12.85,12.85,0,0,1,18.22,0,12.06,12.06,0,0,1,2.64,3.94Z"/><path class="cls-2" d="M258.24,31.94a2.3,2.3,0,0,0-4,.33l-9.64,22.06-9.52-22a2.31,2.31,0,1,0-4.23,1.85L243,61.78a.86.86,0,0,0,.78.51h1.44a.85.85,0,0,0,.78-.51l12.36-27.65A2.29,2.29,0,0,0,258.24,31.94Z"/><path class="cls-2" d="M311.69,45.82h0a25.32,25.32,0,0,0-5.7-3.87,17.5,17.5,0,0,1-3-2.18,3.56,3.56,0,0,1,2.51-6.07,3.11,3.11,0,0,1,2.36.9,3.66,3.66,0,0,1,.71,1.09,3.13,3.13,0,0,0,4,1.6.85.85,0,0,0,.53-.79v-.14A6.78,6.78,0,0,0,311,31.45a7.49,7.49,0,0,0-5.5-2.2,7.68,7.68,0,0,0-5.64,2.36,8,8,0,0,0,0,11.28,22.76,22.76,0,0,0,5,3.36,25.66,25.66,0,0,1,3.72,2.7,4.91,4.91,0,0,1,1.56,3.67,5.25,5.25,0,0,1-10.36,1.23,2.34,2.34,0,0,0-1-1.48,2.2,2.2,0,0,0-1.71-.26,2.25,2.25,0,0,0-1.66,2.58,9.71,9.71,0,0,0,16.34,4.8,9.71,9.71,0,0,0,0-13.67Z"/><path class="cls-1" d="M227.69,60a2.38,2.38,0,0,0,.46-1.4V56a2.37,2.37,0,0,0-.88-1.84v-5.8l3.94,3.2a1.16,1.16,0,1,0,1.46-1.8l-5.4-4.39V44l3.94,3.2a1.16,1.16,0,1,0,1.46-1.8L227.27,41V33.4a2,2,0,0,0-2-2,2.1,2.1,0,0,0-2.1,2.1V41l-5.4,4.39a1.16,1.16,0,0,0-.17,1.63,1.19,1.19,0,0,0,1.63.17l3.94-3.2v1.33l-5.4,4.39a1.16,1.16,0,0,0-.17,1.63,1.19,1.19,0,0,0,1.63.17l3.94-3.2v5.91a2.36,2.36,0,0,0-.75,1.73v2.62a2.37,2.37,0,0,0,.42,1.33C214,67.57,211.31,79,215,93a73.44,73.44,0,0,0,8.83,19.84,1.44,1.44,0,0,0,1.2.64l.14,0,.14,0a1.44,1.44,0,0,0,1.2-.64A73.13,73.13,0,0,0,235.38,93a50,50,0,0,0,1.35-6.93,1.4,1.4,0,0,0,.08-.32,1.37,1.37,0,0,0,0-.31C237.89,75,234.74,66.16,227.69,60Zm4.09,26.8a1.44,1.44,0,0,0-.21,2,1.47,1.47,0,0,0,1.74.39c-.2,1-.44,2-.71,3-.21.8-.45,1.63-.72,2.47l-5.2,4.22V94.63l3.62-3a1.44,1.44,0,1,0-1.83-2.24l-1.79,1.5V86.95l7.48-6.08a36.12,36.12,0,0,1-.19,4ZM226.68,63a23.62,23.62,0,0,1,7.23,14.39l-7.23,5.87ZM216.53,77.19A23.61,23.61,0,0,1,223.8,62.9V83.1Zm7.27,9.63v4.24l-7.33-6a36,36,0,0,1-.21-4.41Zm0,8v4l-5.33-4.33c-.24-.79-.46-1.52-.65-2.24-.25-1-.48-1.92-.68-2.87Zm0,7.75V107a77.24,77.24,0,0,1-3.44-7.3ZM230,100c-1.14,2.75-2.32,5.14-3.27,6.91v-4.26Z"/></g></svg>