<svg xmlns="http://www.w3.org/2000/svg" viewBox="0 0 183 158"><defs><style>.cls-1{fill:#5a6e7f;stroke:#5a6e7f;stroke-linecap:round;stroke-linejoin:round;}</style></defs><title>iconos</title><g id="Layer_1" data-name="Layer 1"><path class="cls-1" d="M114.87,106.86a18.88,18.88,0,1,0,18.88,18.88A18.9,18.9,0,0,0,114.87,106.86Zm0,32.42a13.54,13.54,0,1,1,13.54-13.54A13.55,13.55,0,0,1,114.87,139.28Z"/><path class="cls-1" d="M83.55,62.15a2.66,2.66,0,0,0,1.89-.78l15.93-15.93a18.85,18.85,0,1,0-3.19-4.37L81.66,57.59a2.67,2.67,0,0,0,1.89,4.56Zm31.32-43.43a13.54,13.54,0,1,1-13.54,13.54A13.56,13.56,0,0,1,114.87,18.72Z"/><path class="cls-1" d="M96.17,109.05,80.43,93.31a18.84,18.84,0,1,0-4.62,2.93l16.58,16.58a2.67,2.67,0,0,0,3.78-3.78ZM54.59,79A13.54,13.54,0,1,1,68.13,92.54,13.56,13.56,0,0,1,54.59,79Z"/></g></svg>