<svg xmlns="http://www.w3.org/2000/svg" viewBox="0 0 161 158"><defs><style>.cls-1{fill:#5a6e7f;stroke:#5a6e7f;stroke-linecap:round;stroke-linejoin:round;stroke-width:2px;}</style></defs><title>iconos</title><g id="Layer_1" data-name="Layer 1"><path class="cls-1" d="M144.29,12.5H16.71A2.71,2.71,0,0,0,14,15.21V142.79a2.71,2.71,0,1,0,5.41,0V41.37h108.9a2.71,2.71,0,1,0,0-5.41H19.41v-18H141.59V140.09H44a2.71,2.71,0,0,0,0,5.41H144.29a2.71,2.71,0,0,0,2.71-2.71V15.21A2.71,2.71,0,0,0,144.29,12.5Z"/><path class="cls-1" d="M26.49,25a2.72,2.72,0,1,0,1.91-.79A2.75,2.75,0,0,0,26.49,25Z"/><path class="cls-1" d="M35.51,25a2.71,2.71,0,1,0,1.91-.79A2.73,2.73,0,0,0,35.51,25Z"/><path class="cls-1" d="M44.53,25a2.71,2.71,0,1,0,1.91-.79A2.75,2.75,0,0,0,44.53,25Z"/></g></svg>