<svg xmlns="http://www.w3.org/2000/svg" viewBox="0 0 709 367.59"><defs><style>.cls-1{fill:#fff;}</style></defs><title>logos-wn</title><g id="Layer_1" data-name="Layer 1"><path class="cls-1" d="M103,141.45l14.66-1.19.42,5.38a17.33,17.33,0,0,1,7.62-4.78,30.89,30.89,0,0,1,5.83-1.26,60.82,60.82,0,0,1,7.6-.42,35.77,35.77,0,0,1,6.79.54,15.13,15.13,0,0,1,4.36,1.43,6.83,6.83,0,0,1,2.46,2.1,8.39,8.39,0,0,1,1.2,2.51,20.3,20.3,0,0,1,8.1-4.85q5.07-1.72,14-1.73,6.33,0,9.74,1.85a10.9,10.9,0,0,1,4.88,5.15A17.47,17.47,0,0,1,192,154a77.67,77.67,0,0,1-1,9.81l-7.39,44.36H165.66l6.63-39.82c.33-2,.56-3.75.7-5.26a8.43,8.43,0,0,0-.39-3.77,4,4,0,0,0-2.15-2.21,10.79,10.79,0,0,0-4.42-.72,16.41,16.41,0,0,0-5.7.84,8.91,8.91,0,0,0-3.72,2.57,12.06,12.06,0,0,0-2.3,4.48,55.79,55.79,0,0,0-1.45,6.58l-6.21,37.31H128.71l6.63-39.82c.33-2,.56-3.75.69-5.26a8.59,8.59,0,0,0-.38-3.77,4,4,0,0,0-2.09-2.21,10.39,10.39,0,0,0-4.36-.72,16.85,16.85,0,0,0-5.76.84,8.31,8.31,0,0,0-3.73,2.63,13.89,13.89,0,0,0-2.3,4.48,45.82,45.82,0,0,0-1.5,6.52l-6.22,37.31H91.88Z"/><path class="cls-1" d="M212.4,209a28,28,0,0,1-10.5-1.62,12.45,12.45,0,0,1-5.83-4.48,13,13,0,0,1-2.1-6.76,39.13,39.13,0,0,1,.57-8.43,33.34,33.34,0,0,1,4-11.84,21.43,21.43,0,0,1,7.52-7.47,33,33,0,0,1,11.48-3.95,96.66,96.66,0,0,1,15.86-1.13h2.39c.3-2.79-.06-4.83-1.08-6.1s-3.21-1.92-6.56-1.92A43,43,0,0,0,218,156.4a46.52,46.52,0,0,0-7.66,2.51l-4.86-14.59a54.05,54.05,0,0,1,11.59-3.88,72.85,72.85,0,0,1,15.85-1.5,43.8,43.8,0,0,1,11.51,1.25,13.55,13.55,0,0,1,6.81,4,12.75,12.75,0,0,1,2.82,7.12,40.63,40.63,0,0,1-.58,10.7l-4.21,25.23c-.34,2.08-.33,3.47,0,4.19s1.62,1.08,3.77,1.08l-2.61,15.66a17.34,17.34,0,0,1-2.79.24H245c-2.15,0-4-.06-5.47-.18a11.81,11.81,0,0,1-3.75-.84,6.4,6.4,0,0,1-2.4-1.73,7.08,7.08,0,0,1-1.32-2.87,19.89,19.89,0,0,1-7.84,4.73A39,39,0,0,1,212.4,209Zm6.65-14.83a20.76,20.76,0,0,0,4.87-.54,10,10,0,0,0,4-1.91,11.52,11.52,0,0,0,2.94-3.65,18.86,18.86,0,0,0,1.79-5.74l1-6.22h-2.28a72.34,72.34,0,0,0-8.49.42,18.09,18.09,0,0,0-5.7,1.5,8.24,8.24,0,0,0-3.41,2.92,12.25,12.25,0,0,0-1.69,4.73c-.5,3-.25,5.2.77,6.52S215.94,194.19,219.05,194.19Z"/><path class="cls-1" d="M287.37,188.21l-14,20H255l26-35.64L268,140.38h19.61l6.94,17.22,11.84-17.22h18.41l-23.89,32.88L315,208.18H295.53Z"/><path class="cls-1" d="M336.63,117.89H354.8l-2.72,16.39H333.9Zm-3.75,22.49h18.06l-11.29,67.8h-18Z"/><path class="cls-1" d="M376.2,209.14q-8.61,0-13.71-2.4a15.84,15.84,0,0,1-7.52-6.87,24.13,24.13,0,0,1-2.59-11,77.46,77.46,0,0,1,1.2-14.77,87.63,87.63,0,0,1,3.62-14.59,32.42,32.42,0,0,1,6.32-11,26.11,26.11,0,0,1,10.18-6.94,42.29,42.29,0,0,1,15.23-2.39,49.64,49.64,0,0,1,10.84,1,29.77,29.77,0,0,1,7.33,2.63l-10.5,15.66a18.1,18.1,0,0,0-4.13-1.73,19.52,19.52,0,0,0-5.39-.66,15.73,15.73,0,0,0-6,1,10.29,10.29,0,0,0-4.25,3.23,19,19,0,0,0-2.93,5.74,57,57,0,0,0-2,8.67q-1.68,10.16.17,14.47t9.14,4.3a22,22,0,0,0,6.3-.84q2.83-.82,5.52-1.91l4.53,13.75A53.09,53.09,0,0,1,387,208.12,51.54,51.54,0,0,1,376.2,209.14Z"/><path class="cls-1" d="M428.92,209.25q-9,0-14.29-2.51a17.52,17.52,0,0,1-8-7.05,23.2,23.2,0,0,1-2.89-11.06,73.57,73.57,0,0,1,1.11-14.53,79,79,0,0,1,3.7-14.35,34.15,34.15,0,0,1,6.5-11.06,26.92,26.92,0,0,1,10.33-7.06,41.55,41.55,0,0,1,15.18-2.45q9.07,0,14.47,2.51a16.77,16.77,0,0,1,7.9,7.12,24.31,24.31,0,0,1,2.72,11,75.36,75.36,0,0,1-1.13,14.29,85.33,85.33,0,0,1-3.69,14.65,33.63,33.63,0,0,1-6.39,11.06,26.63,26.63,0,0,1-10.25,7A42,42,0,0,1,428.92,209.25Zm2.63-15.78a13.68,13.68,0,0,0,6.43-1.32,11.08,11.08,0,0,0,4.09-3.7,20.15,20.15,0,0,0,2.53-5.86q.93-3.47,1.67-7.89t1-7.9a15.73,15.73,0,0,0-.58-5.86,6.53,6.53,0,0,0-2.86-3.64,11.67,11.67,0,0,0-6-1.26,14.23,14.23,0,0,0-6.43,1.26,10.46,10.46,0,0,0-4.07,3.64,19.62,19.62,0,0,0-2.53,5.86q-.94,3.48-1.68,7.9a77.42,77.42,0,0,0-.95,7.89,15.52,15.52,0,0,0,.58,5.86,6.79,6.79,0,0,0,2.85,3.7A11.17,11.17,0,0,0,431.55,193.47Z"/><path class="cls-1" d="M477.63,141.45l14.68-1.19.42,5.38a17.37,17.37,0,0,1,7.61-4.78,30.89,30.89,0,0,1,5.83-1.26,60.82,60.82,0,0,1,7.6-.42,35.77,35.77,0,0,1,6.79.54,15.13,15.13,0,0,1,4.36,1.43,6.83,6.83,0,0,1,2.46,2.1,8.39,8.39,0,0,1,1.2,2.51,20.3,20.3,0,0,1,8.1-4.85q5.07-1.72,14-1.73c4.23,0,7.47.62,9.74,1.85a11,11,0,0,1,4.89,5.15,17.47,17.47,0,0,1,1.32,7.83,77.67,77.67,0,0,1-1,9.81l-7.39,44.36H540.31l6.63-39.82c.33-2,.56-3.75.7-5.26a8.43,8.43,0,0,0-.39-3.77,4,4,0,0,0-2.14-2.21,10.85,10.85,0,0,0-4.43-.72,16.41,16.41,0,0,0-5.7.84,8.91,8.91,0,0,0-3.72,2.57,12.21,12.21,0,0,0-2.3,4.48,55.79,55.79,0,0,0-1.45,6.58l-6.21,37.31H503.36L510,168.36c.33-2,.56-3.75.69-5.26a8.3,8.3,0,0,0-.38-3.77,4.05,4.05,0,0,0-2.08-2.21,10.44,10.44,0,0,0-4.37-.72,16.93,16.93,0,0,0-5.76.84,8.23,8.23,0,0,0-3.72,2.63,13.7,13.7,0,0,0-2.31,4.48,47.12,47.12,0,0,0-1.51,6.52l-6.21,37.31H466.53Z"/><path class="cls-1" d="M577.49,141.45l14.67-1.19.42,5.38a17.21,17.21,0,0,1,7.61-4.78A31.07,31.07,0,0,1,606,139.6a60.82,60.82,0,0,1,7.6-.42,35.7,35.7,0,0,1,6.79.54,15.31,15.31,0,0,1,4.37,1.43,7,7,0,0,1,2.46,2.1,8.61,8.61,0,0,1,1.19,2.51,20.3,20.3,0,0,1,8.1-4.85q5.07-1.72,14-1.73c4.23,0,7.47.62,9.74,1.85a10.9,10.9,0,0,1,4.88,5.15,17.47,17.47,0,0,1,1.33,7.83,75.87,75.87,0,0,1-1,9.81l-7.39,44.36H640.16l6.63-39.82c.33-2,.57-3.75.7-5.26a8.43,8.43,0,0,0-.39-3.77,4,4,0,0,0-2.14-2.21,10.88,10.88,0,0,0-4.43-.72,16.41,16.41,0,0,0-5.7.84,8.81,8.81,0,0,0-3.71,2.57,12.07,12.07,0,0,0-2.31,4.48,57.88,57.88,0,0,0-1.45,6.58l-6.21,37.31H603.21l6.63-39.82c.33-2,.57-3.75.7-5.26a8.43,8.43,0,0,0-.39-3.77,4,4,0,0,0-2.09-2.21,10.35,10.35,0,0,0-4.36-.72,16.93,16.93,0,0,0-5.76.84,8.31,8.31,0,0,0-3.73,2.63,13.88,13.88,0,0,0-2.29,4.48,44.38,44.38,0,0,0-1.51,6.52l-6.21,37.31H566.38Z"/><path class="cls-1" d="M679.92,194.88h4v13.3h-2.58v-9c0-.26,0-.62,0-1.09s0-.83,0-1.07l-2.53,11.16h-2.7L673.62,197v1.07c0,.47,0,.83,0,1.09v9h-2.59v-13.3h4l2.42,10.46Z"/><path class="cls-1" d="M695,195.22a3.28,3.28,0,0,1,1.25.93,4.32,4.32,0,0,1,.67,1.11,3.9,3.9,0,0,1,.24,1.41,4,4,0,0,1-.48,1.86,2.65,2.65,0,0,1-1.58,1.29,2.52,2.52,0,0,1,1.31,1.05,4.37,4.37,0,0,1,.38,2.09v.89a6.5,6.5,0,0,0,.08,1.24,1.08,1.08,0,0,0,.51.75v.34h-3.07c-.08-.3-.14-.53-.18-.72a7.1,7.1,0,0,1-.12-1.14v-1.24a2.54,2.54,0,0,0-.44-1.69A2.24,2.24,0,0,0,692,203h-2.71v5.22h-2.72v-13.3h6.37A5.63,5.63,0,0,1,695,195.22Zm-5.74,2v3.57h3a3.31,3.31,0,0,0,1.34-.21,1.52,1.52,0,0,0,.79-1.5,1.69,1.69,0,0,0-.77-1.63,2.68,2.68,0,0,0-1.28-.23Z"/><path class="cls-1" d="M287.22,229.88c-4.23,0-6.44,4-6.44,7.89,0,2.2.74,4.83,4.28,4.83,4.05,0,6.24-4,6.24-7.81C291.3,232.41,290.23,229.88,287.22,229.88Z"/><path class="cls-1" d="M247.3,229.88c-4.22,0-6.43,4-6.43,7.89,0,2.2.74,4.83,4.28,4.83,4,0,6.23-4,6.23-7.81C251.38,232.41,250.31,229.88,247.3,229.88Z"/><polygon class="cls-1" points="446.33 236.79 449.6 236.79 448.89 232.31 446.33 236.79"/><polygon class="cls-1" points="368.29 236.79 371.55 236.79 370.84 232.31 368.29 236.79"/><polygon class="cls-1" points="338.63 236.79 341.9 236.79 341.19 232.31 338.63 236.79"/><polygon class="cls-1" points="505.51 236.79 508.78 236.79 508.07 232.31 505.51 236.79"/><path class="cls-1" d="M89.62,221.73l-4.65,28H651.19l4.65-28Zm77.82,8.57-3.36,15.87h-4.42L163,230.3h-6l.85-4h16.48l-.9,4Zm23.86,0h-10l-.78,3.69h9.25l-.8,4h-9.3l-.88,4.18h10.08l-.9,4H173.55l4.2-19.87H192.1ZM212,234.06h-4.38v-1c0-2.63-1.86-3.18-3.43-3.18-4.22,0-6.43,4-6.43,7.89,0,2.2.74,4.83,4.28,4.83,2.34,0,3.88-1.26,4.57-3.73l.2-.73h4.39l-.27,1.22c-1.05,4.67-4.21,7.24-8.89,7.24-5.42,0-8.66-3.3-8.66-8.83,0-5.91,3.72-11.89,10.81-11.89,4.75,0,7.81,2.82,7.81,7.18Zm18.25,12.11h-4l-5.37-12.46-2.57,12.46h-4.35l4.2-19.87h4l5.41,12.54,2.52-12.54h4.36Zm14.93.43c-5.42,0-8.66-3.3-8.66-8.83,0-5.91,3.72-11.89,10.81-11.89,5,0,8.46,3.66,8.46,8.91C255.76,240.51,252,246.6,245.15,246.6Zm26.71-.43H258l4.17-19.87h4.42l-3.3,15.87h9.44Zm13.2.43c-5.42,0-8.66-3.3-8.66-8.83,0-5.91,3.72-11.89,10.82-11.89,5,0,8.45,3.66,8.45,8.91C295.67,240.51,292,246.6,285.06,246.6Zm32.84-12.74h-4.38v-1c0-2.69-2.66-3-3.81-3-4.22,0-6.43,4-6.43,7.89,0,2.2.74,4.83,4.28,4.83,2.56,0,4.17-1.2,5.12-3.83h-5.59l.8-4h9.84l-2.37,11.41h-3.24l-.06-.79a8.61,8.61,0,0,1-4.5,1.22c-5.42,0-8.66-3.3-8.66-8.83,0-5.91,3.71-11.89,10.81-11.89,5.05,0,8.19,2.67,8.19,7Zm2.49,12.31,4.17-19.87H329l-4.17,19.87Zm22.95,0-.83-5.38h-6.1l-3.13,5.38h-5l12-19.87h4l3.59,19.87Zm29.65,0-.83-5.38h-6.1l-3.13,5.38h-5l12-19.87h4l3.59,19.87Zm34.44-15.87h-6l-3.35,15.87h-4.42L397,230.3h-6l.85-4h16.48Zm18.14,7.93a23.76,23.76,0,0,1-1,3.61c-1.24,3.06-4,4.76-7.87,4.76-2.93,0-5.08-.81-6.39-2.42s-1.65-3.79-1.08-6.57l2.4-11.31h4.42l-2.61,12.32a3.54,3.54,0,0,0,.28,3,3.87,3.87,0,0,0,3,1c3.13,0,3.79-1.53,4.47-4.79l2.42-11.51h4.42ZM451,246.17l-.83-5.38h-6.1L441,246.17h-5l12-19.87h4l3.59,19.87Zm21.11,0H458.27l4.17-19.87h4.42l-3.3,15.87H473Zm22.09-6.81c-1.05,4.67-4.21,7.24-8.89,7.24-5.42,0-8.66-3.3-8.66-8.83,0-5.91,3.71-11.89,10.81-11.89,4.75,0,7.81,2.82,7.81,7.18v1h-4.38v-1c0-2.63-1.86-3.18-3.43-3.18-4.22,0-6.43,4-6.43,7.89,0,2.2.74,4.83,4.28,4.83,2.34,0,3.88-1.26,4.57-3.73l.2-.73h4.39Zm16,6.81-.83-5.38h-6.1l-3.13,5.38h-5l12-19.87h4l3.6,19.87Zm23.54,0h-4l-5.37-12.45-2.56,12.45h-4.36l4.21-19.87h4l5.41,12.54,2.52-12.54H538Zm24.89-12.11h-4.38v-1c0-2.63-1.87-3.18-3.43-3.18-4.23,0-6.44,4-6.44,7.89,0,2.2.75,4.83,4.29,4.83,2.34,0,3.87-1.26,4.56-3.73l.21-.73h4.39l-.28,1.22c-1.05,4.67-4.21,7.24-8.88,7.24-5.43,0-8.66-3.3-8.66-8.83,0-5.91,3.71-11.89,10.81-11.89,4.74,0,7.81,2.82,7.81,7.18Zm19.68-3.76h-9.94l-.78,3.69h9.25l-.8,4h-9.3l-.88,4.18H576l-.9,4H560.59l4.2-19.87h14.34Z"/><polygon class="cls-1" points="78.39 207.07 74.46 230.64 50.89 230.64 54.82 207.07 78.39 207.07"/><polygon class="cls-1" points="58.75 183.5 54.82 207.07 31.25 207.07 35.18 183.5 58.75 183.5"/><polygon class="cls-1" points="86.25 159.94 82.31 183.5 58.75 183.5 62.67 159.94 86.25 159.94"/><polygon class="cls-1" points="39.11 159.93 35.18 183.5 11.61 183.49 15.54 159.94 39.11 159.93"/></g></svg>