<svg xmlns="http://www.w3.org/2000/svg" viewBox="0 0 709 367.59"><defs><style>.cls-1{fill:#fff;}</style></defs><title>logos-wn</title><g id="Layer_1" data-name="Layer 1"><path class="cls-1" d="M165,230.13a33.68,33.68,0,1,1,33.67-33.68A33.72,33.72,0,0,1,165,230.13Zm0-64.35a30.68,30.68,0,1,0,30.67,30.67A30.71,30.71,0,0,0,165,165.78Z"/><path class="cls-1" d="M165,231.13a34.68,34.68,0,1,1,34.67-34.68A34.72,34.72,0,0,1,165,231.13Zm0-67.35a32.68,32.68,0,1,0,32.67,32.67A32.71,32.71,0,0,0,165,163.78Zm0,64.35a31.68,31.68,0,1,1,31.67-31.68A31.71,31.71,0,0,1,165,228.13Zm0-61.35a29.68,29.68,0,1,0,29.67,29.67A29.71,29.71,0,0,0,165,166.78Z"/><path class="cls-1" d="M124,230.13a33.68,33.68,0,1,1,33.67-33.68A33.72,33.72,0,0,1,124,230.13Zm0-64.35a30.68,30.68,0,1,0,30.67,30.67A30.71,30.71,0,0,0,124,165.78Z"/><path class="cls-1" d="M124,231.13a34.68,34.68,0,1,1,34.67-34.68A34.72,34.72,0,0,1,124,231.13Zm0-67.35a32.68,32.68,0,1,0,32.67,32.67A32.71,32.71,0,0,0,124,163.78Zm0,64.35a31.68,31.68,0,1,1,31.67-31.68A31.71,31.71,0,0,1,124,228.13Zm0-61.35a29.68,29.68,0,1,0,29.67,29.67A29.71,29.71,0,0,0,124,166.78Z"/><path class="cls-1" d="M144.52,196.9a33.68,33.68,0,1,1,33.67-33.68A33.72,33.72,0,0,1,144.52,196.9Zm0-64.36a30.68,30.68,0,1,0,30.67,30.68A30.72,30.72,0,0,0,144.52,132.54Z"/><path class="cls-1" d="M144.52,197.9a34.68,34.68,0,1,1,34.67-34.68A34.72,34.72,0,0,1,144.52,197.9Zm0-67.36a32.68,32.68,0,1,0,32.67,32.68A32.72,32.72,0,0,0,144.52,130.54Zm0,64.36a31.68,31.68,0,1,1,31.67-31.68A31.71,31.71,0,0,1,144.52,194.9Zm0-61.36a29.68,29.68,0,1,0,29.67,29.68A29.71,29.71,0,0,0,144.52,133.54Z"/><path class="cls-1" d="M51.54,186.46c0-54.07,45.16-98.1,101.59-99.9Q147.76,86,142.24,86C84.14,86,37,130.78,37,186s47.1,100,105.2,100c1.2,0,2.4,0,3.6-.07C92.86,280.71,51.54,238.17,51.54,186.46Z"/><path class="cls-1" d="M236.73,182.41c0-54.25-44-98.44-99.07-100.25q5.25-.52,10.63-.53c56.65,0,102.57,44.91,102.57,100.31S204.94,282.25,148.29,282.25c-1.18,0-2.35,0-3.51-.06C196.44,277,236.73,234.3,236.73,182.41Z"/><path class="cls-1" d="M319.56,145.21q6.76,5.7,6.77,15.69t-6.77,15.65q-6.78,5.67-18.73,5.66H284.07v19.71h-6.6V139.5h23.36Q312.79,139.5,319.56,145.21Zm-4.73,27.15q4.91-4.05,4.9-11.46,0-7.58-4.9-11.63t-14.18-4.06H284.07v31.21h16.58Q309.92,176.42,314.83,172.36Z"/><path class="cls-1" d="M342.38,139.5H349v62.42h-6.6Z"/><path class="cls-1" d="M423.26,139.5v62.42h-5.44l-40.13-50.65v50.65H371.1V139.5h5.43l40.22,50.65V139.5Z"/><path class="cls-1" d="M489.51,196.21v5.71H445.37V139.5h42.81v5.71H452v22.2h32.28V173H452v23.18Z"/><path class="cls-1" d="M506.81,139.5h25.42a37,37,0,0,1,17.47,4,28.92,28.92,0,0,1,11.78,11.06,33.35,33.35,0,0,1,0,32.37,29,29,0,0,1-11.78,11,37,37,0,0,1-17.47,4H506.81Zm25.06,56.71A30.27,30.27,0,0,0,546.23,193a23.63,23.63,0,0,0,9.54-9,27.55,27.55,0,0,0,0-26.48,23.63,23.63,0,0,0-9.54-9,30.27,30.27,0,0,0-14.36-3.25H513.41v51Z"/><path class="cls-1" d="M620.51,185.25H585.73l-7.49,16.67h-6.87l28.54-62.42h6.51L635,201.92h-7Zm-2.41-5.35-15-33.53-15,33.53Z"/><path class="cls-1" d="M275.31,215.52H278v25.54h-2.7Z"/><path class="cls-1" d="M315,215.52v25.54h-2.23l-16.42-20.73v20.73h-2.7V215.52h2.23l16.45,20.73V215.52Z"/><path class="cls-1" d="M335.56,217.85h-9v-2.33h20.66v2.33h-9v23.21h-2.7Z"/><path class="cls-1" d="M376.91,238.73v2.33H358.84V215.52h17.52v2.33H361.54v9.09h13.21v2.3H361.54v9.49Z"/><path class="cls-1" d="M408.4,228.29H411V238a12.39,12.39,0,0,1-4.23,2.41,15.75,15.75,0,0,1-5.15.84,14.09,14.09,0,0,1-6.89-1.68A12.39,12.39,0,0,1,389.9,235a13.55,13.55,0,0,1,0-13.32,12.39,12.39,0,0,1,4.82-4.65,14.16,14.16,0,0,1,6.93-1.68,15,15,0,0,1,5.37.93,10.71,10.71,0,0,1,4.12,2.75l-1.68,1.72a10.53,10.53,0,0,0-7.7-3,11.36,11.36,0,0,0-5.6,1.37,9.93,9.93,0,0,0-3.92,3.79,10.53,10.53,0,0,0-1.43,5.42,10.38,10.38,0,0,0,1.43,5.4,10.24,10.24,0,0,0,3.9,3.8,11.29,11.29,0,0,0,5.58,1.38,11.07,11.07,0,0,0,6.68-2Z"/><path class="cls-1" d="M443.36,241.06l-5.84-8.21a16.75,16.75,0,0,1-2,.11h-6.86v8.1h-2.7V215.52h9.56q4.89,0,7.66,2.33a8,8,0,0,1,2.78,6.43,7.93,7.93,0,0,1-5.84,8l6.24,8.76ZM441.21,229a5.77,5.77,0,0,0,2-4.7,5.84,5.84,0,0,0-2-4.77,8.93,8.93,0,0,0-5.8-1.66h-6.79v12.81h6.79A8.82,8.82,0,0,0,441.21,229Z"/><path class="cls-1" d="M475.62,234.24H461.39l-3.06,6.82h-2.81l11.67-25.54h2.67l11.68,25.54h-2.85Zm-1-2.19-6.13-13.72-6.13,13.72Z"/><path class="cls-1" d="M493.07,215.52h2.7v23.21h14.3v2.33h-17Z"/><path class="cls-1" d="M548.39,215.52v25.54H545.8V220.63l-10,17.19h-1.27l-10-17.08v20.32h-2.59V215.52h2.23l11.09,18.94,11-18.94Z"/><path class="cls-1" d="M582.08,238.73v2.33H564V215.52h17.52v2.33H566.71v9.09h13.21v2.3H566.71v9.49Z"/><path class="cls-1" d="M595.72,215.52h10.4a15.24,15.24,0,0,1,7.16,1.62,11.75,11.75,0,0,1,4.81,4.53,13.6,13.6,0,0,1,0,13.24,11.75,11.75,0,0,1-4.81,4.53,15.24,15.24,0,0,1-7.16,1.62h-10.4ZM606,238.73a12.43,12.43,0,0,0,5.87-1.33,9.73,9.73,0,0,0,3.91-3.69,11.26,11.26,0,0,0,0-10.84,9.64,9.64,0,0,0-3.91-3.68,12.31,12.31,0,0,0-5.87-1.34h-7.56v20.88Z"/><path class="cls-1" d="M633.17,215.52h2.7v25.54h-2.7Z"/><path class="cls-1" d="M655.74,239.6A12.28,12.28,0,0,1,651,235a13.62,13.62,0,0,1,0-13.32,12.2,12.2,0,0,1,4.8-4.65,14,14,0,0,1,6.86-1.68,14.25,14.25,0,0,1,5.25.95A10.8,10.8,0,0,1,672,219l-1.72,1.72a10.16,10.16,0,0,0-7.55-3,11.13,11.13,0,0,0-5.51,1.38,10.15,10.15,0,0,0-3.89,3.8,11.11,11.11,0,0,0,0,10.8,10.15,10.15,0,0,0,3.89,3.8,11.13,11.13,0,0,0,5.51,1.38,10,10,0,0,0,7.55-3.06l1.72,1.71a11.09,11.09,0,0,1-4.11,2.8,14.19,14.19,0,0,1-5.27,1A13.92,13.92,0,0,1,655.74,239.6Z"/></g></svg>