<svg xmlns="http://www.w3.org/2000/svg" viewBox="0 0 377.26 481.68"><defs><style>.cls-1{fill:#fff;}</style></defs><title>logos-wn</title><g id="Layer_1" data-name="Layer 1"><path class="cls-1" d="M357.93,255.4l-1.74-2.7a141.57,141.57,0,0,1-11.87-21.29c-.77-1.79-1-1.49,1-2.3q2.71-1.08,5.48-2.05a1.39,1.39,0,0,0,1.13-1.48,14.67,14.67,0,0,0-2.16-8.11,2.45,2.45,0,0,0-2.28-1.32c-3.66,0-7.31-.22-11-.27a2.45,2.45,0,0,1-2.08-1,41.82,41.82,0,0,0-8.54-7.72c-9.43-6.4-20-8.37-31.16-7.85a94.89,94.89,0,0,0-23.2,4.24,3.86,3.86,0,0,1-1.88.38c.24-1,.43-1.82.66-2.66a18.36,18.36,0,0,0,.51-8.06,66.59,66.59,0,0,1-1-10.14c0-.37.08-.8-.24-1.08-.84-.75-.82-1.78-.95-2.76-.23-1.74,0-1.51,1.26-1.55a9.15,9.15,0,0,0,7.21-4,26.75,26.75,0,0,0,1.9-2.82,191.59,191.59,0,0,0,23-60.12c.28-1.4.28-1.38,1.8-1.47a28.68,28.68,0,0,0,10.57-2.64,8.15,8.15,0,0,0,3-2.24,5,5,0,0,0,.72-5.34c-.19-.46-.73-1.06-1.08-.37-.76,1.52-1.9,1.16-3.07.91a39.37,39.37,0,0,1-5.31-1.83c.37-.58.7-1.11,1-1.62a116.75,116.75,0,0,0,8.42-15,14,14,0,0,0,.87-2.09c.52-1.85-.53-2.95-2.43-2.56A30.12,30.12,0,0,0,310,79c-.46.21-.9.65-1.66.46.31-.66.56-1.22.83-1.77,2.39-4.93,4.88-9.82,7-14.88,1-2.37.76-2.84-1.47-4.26-1.06-.67-2.29-1-3.27-1.65a3.14,3.14,0,0,0-3.2-.42,17.21,17.21,0,0,1-4.79,1,5.41,5.41,0,0,0-3.2,1,7,7,0,0,1-4.62,1.83,5.06,5.06,0,0,0-4.45,3.33,12.77,12.77,0,0,0-.92,3.07,66.53,66.53,0,0,0-.74,9.24c0,1.2,0,2.4,0,3.6,0,.74-.45.79-1,.72l-.47.25a1.33,1.33,0,0,0,0,.88,25.42,25.42,0,0,1,4.52.23,9.54,9.54,0,0,1,7.59,11.74,11.91,11.91,0,0,1-4.44,6.84,3.81,3.81,0,0,1-3.14.64c-2.31-.28-3-1.68-3.38-3.59-.77-3.74.11-6.85,3.36-9.13A7.69,7.69,0,0,0,295,85.54a1.89,1.89,0,0,0-1.17-3c-.42-.13-.94-.26-1.1.31s.3.6.67.72,1,.41.77,1.06-.49,1.2-1.27,1.21a14.28,14.28,0,0,1-2.07-.07,4.44,4.44,0,0,1-1.43-.46c-1-.53-1-1.38-.11-2a2.09,2.09,0,0,1,.35-.13c.37-.16.73-.38.52-.83s-.67-.23-1-.28c-.93.59-1.84,1.17-1.6,2.51s1.21,1.83,2.36,2.13l1.74.42c-.08.43-.4.55-.63.75-1.51,1.32-3.1,1.06-4.17-.66a7.52,7.52,0,0,1-.62-1.78c-.1-.31-.24-.63-.63-.52s-.44.43-.4.76A4.45,4.45,0,0,0,288,89.6c.74.29,1,.5.64,1.32a10.76,10.76,0,0,0-.4,7c.09.39.41.82,0,1.21a4.7,4.7,0,0,1-2-.49,14.45,14.45,0,0,1-2.22-1c-3.4-2-4.59-4.83-3.7-8.64a10.47,10.47,0,0,1,4.16-6.13c.37-.28,1.14-.53.78-1.08-.58-.9-.21-1.69,0-2.53.65-3.2.29-3.69-3-4-.69-.06-1.39-.07-2.08-.15-.41,0-.9.16-1.22-.32,0-.68.56-1.1.89-1.61q7.39-11.11,14.81-22.2a13,13,0,0,0-4.31-18.8,171.84,171.84,0,0,0-40.66-17.56c-1.94-.55-3.88-1.14-5.86-1.52-4.28-.81-7.48,2.23-7,6.54.1.81.29,1.62.35,2.43a22.53,22.53,0,0,1,.4,3.57c-1.51-.21-2.87-.45-4.24-.59a7.5,7.5,0,0,0-7.72,4.33c-.56,1.2-.53,1.34.76,1.7,2.67.74,5.36,1.4,8,2.17.68.2,1.5.14,2.12.82l-2.95,2.46c-3.54,3-7.11,5.87-10.34,9.16-2.09,2.13-2.07,2.26-.28,4.63l-1.35.62c-2,.89-3.91,1.75-5.84,2.68a23.67,23.67,0,0,0-5.18,3.11c-1.75,1.48-1.57,3.11.44,4.2,1,.54,2,1,3.06,1.48a1.27,1.27,0,0,1,.82,1.49,15.73,15.73,0,0,1-.85,4.25,2.83,2.83,0,0,0,.92,3.54c.49.45,1.05.83,1.62,1.28l-.51.66c-1.32,1.9-1.15,3.51.59,5a16.05,16.05,0,0,0,2,1.41c2.82,1.75,2.85,1.06,1.19,4.39a20.73,20.73,0,0,0-2.12,5.24,4,4,0,0,0,1.91,4.55,9.82,9.82,0,0,0,2.58,1.16,28.07,28.07,0,0,0,11.24.87c.35,0,.8-.29,1,.08a1.38,1.38,0,0,1,0,1.44,8,8,0,0,1-.86,1c-1.51,2-2.07,4.22-1,6.38a5.71,5.71,0,0,1,.16,4.81c-.33,1-.44,2.1-.67,3.14a2.48,2.48,0,0,1-.69,1.51c-3.71,3.23-7.4,6.49-11.1,9.74a2.19,2.19,0,0,1-.48.31A120.79,120.79,0,0,0,209.32,131c.26-1.48,1-3.74,1.3-4.91.17-.59.08-1-.59-1.1l-5.28-.92c-.14,1.45-.28,2.76-.39,4.07s-.18,2.56-.28,4c-.52-.29-.8-.42-1.07-.59-5.34-3.47-10.58-7.1-15.79-10.77-.3-.22-.71-.42-.85-.73-.69-1.49-2.14-2.1-3.37-2.94-1.72-1.17-3.51-2.22-5.25-3.37-4.05-2.68-8.29-5.06-12.16-8a2.4,2.4,0,0,1-1.16-2.14,4.26,4.26,0,0,0-4.26-4.41,3,3,0,0,1-2.25-1.07,13.71,13.71,0,0,0-3.06-2.52c-1.6-.89-2.58-.53-3.24,1.19-.14.35-.22.72-.33,1.08s-.11.48-.43.54c-1.75.3-1.85,1.74-1.9,3s-.94,1.64-1.69,2-1.39-.33-1.92-.86a3.89,3.89,0,0,1-1.06-2.36c-.34-2.57,0-5.11.05-8.08a16.49,16.49,0,0,0,1.11,1.93,1.76,1.76,0,0,0,3.06-.41,6.89,6.89,0,0,0,.38-1.27c.77-3.12,1.38-6.28,1.87-9.46a12.19,12.19,0,0,0,.29-4c-.15-.87-.31-1.78-1.32-2.12a2.19,2.19,0,0,0-2.23.71,9.74,9.74,0,0,0-3,4.28c-.18.5-.27.87-.94.95-2.13.24-2.62.74-2.92,2.89-.17,1.31-.29,2.63-.4,4q-.72,8.49-1.41,17c-.19,2.39.09,4.67,1.81,6.54a1.17,1.17,0,0,1,.37,1c-.44,2.85-.32,5.78-1.4,8.54q-8.65,22.3-17.28,44.61c-.45,1.16-.8,2.37-2.07,3a3.47,3.47,0,0,0-1.17,1.46c-1,1.67-2,3.36-3,5-.41.66-.65,1.48-1.41,1.93a20.2,20.2,0,0,0-15.5-10c-2.74-.36-3.92.24-5.24,2.67-3.29,6.09-3.43,12.41-1.27,18.87a4.88,4.88,0,0,0,3,3.15,21.65,21.65,0,0,0,4.76,1.17,3.21,3.21,0,0,0,2.78-.84q2.1-1.9,4.21-3.8c0-.2.13-.28.3-.31.22-.53.7-.83,1.18-1.35a2.86,2.86,0,0,1-.9,1.69.43.43,0,0,1-.3.47,2,2,0,0,1-.18.53q-8.59,14.26-17.22,28.52c-.67,1.11-.7,1.1-2.08.57a54.57,54.57,0,0,0-27.15-3.22,54.08,54.08,0,0,0-34.65,18.74c-.25.29-.49.58-.72.88a2.23,2.23,0,0,0-.26,2.64,2.38,2.38,0,0,0,2.38,1.24c.44,0,.87-.15,1.31-.17,1.36-.07,2.66-.63,4.35-.56A46.2,46.2,0,0,0,22.4,256.26a45.48,45.48,0,0,0,2.65,38.57,44.5,44.5,0,0,0,13.26,14.86c10.71,7.56,22.6,10.24,35.41,7.62C90,314,101,304.12,107.49,289c.54.35.51.85.69,1.24.74,1.57,1,1.75,2.78,1.62l4.53-.32a5.43,5.43,0,0,0,5.28-4.33,54.53,54.53,0,0,0-15.15-56.13c-1.52-1.42-1.4-1-.26-2.69q4.06-5.94,8.15-11.86c1.5-2.19,3-4.38,4.51-6.55.24-.35.49-1,.88-.85,1.2.59,1.4-.23,1.68-1s.7-.81,1.31-.44c.21.13.47.21.67.35a9.28,9.28,0,0,0,8.56,1.41,10.33,10.33,0,0,1,1.68-.27l3.9-.54-1.61,2.31a25.39,25.39,0,0,0-4,7.71,3,3,0,0,1-2.08,2.36c-.41.13-.76.48-1.31.29,0-.74,0-1.5,0-2.25a2.33,2.33,0,0,0-1.51-2.2,2.27,2.27,0,0,0-2.63.45,3.24,3.24,0,0,0-1.13,2.51,27.83,27.83,0,0,0,0,3,2.14,2.14,0,0,1-1,2,9.14,9.14,0,0,0-3.48,5.47,5.34,5.34,0,0,0,2.81,6.22,9,9,0,0,0,6.44.76c1.7-.36,1.7-.39,2.67,1.07,6.5,9.77,13.1,19.48,19.92,29,.24.34.66.63.54,1.09-.17.3-.44.3-.68.37-2.23.65-4.47,1.3-6.71,2a4,4,0,0,0-2.69,1.93,3,3,0,0,1-2.1,1.65c-.94.27-1.85.73-2,1.82a4.73,4.73,0,0,0,.1,2.79,2.18,2.18,0,0,1-.29,2.52c-1.08,1.66-.58,2.95,1.29,3.67a24.19,24.19,0,0,0,3.42,1.07c12.73,2.81,25.56,4.74,38.63,4.58,2.46,0,4.93.08,7.24-1a2.77,2.77,0,0,1,1.12-.1l35.24.06c3.22,0,6.44.09,9.59-.8s5.89-2.28,7.36-5.41a1.14,1.14,0,0,1,1.21-.67c5,0,10.07-.88,15.1.27a3.2,3.2,0,0,1,2.29,1.62,43.18,43.18,0,0,0,79.25-30.74,77.17,77.17,0,0,0-2.4-8.34c-.49-.43-.44-1.06-.68-1.58a2.4,2.4,0,0,1,1,1.24c.54.69,1.09,1.37,1.63,2.07a30.42,30.42,0,0,0,4.91,5.23c4.72,3.79,10,4.19,15.71,3C357.94,255.51,358,255.44,357.93,255.4ZM28.22,238.92a1,1,0,0,1-1.39,0,1,1,0,0,1-.28-1.35,7.39,7.39,0,0,1,.79-1.05,53.91,53.91,0,0,1,59.83-15.41c.42.15.83.31,1.24.48a2,2,0,0,1,.4.31c-1,2.29-2.73,4.08-3.37,6.41-.66.21-1.12-.24-1.61-.45A49.67,49.67,0,0,0,29.16,238C28.84,238.29,28.55,238.63,28.22,238.92Zm4.56-.57a5.66,5.66,0,0,1-2.05.24C42,226.11,65.87,219.86,85.31,230a64.33,64.33,0,0,0-4.36,6.6c-.51.82-.92,1.08-1.93.63-7.42-3.28-15.23-3.69-23.18-3S40.42,236.71,32.78,238.35Zm58.91,47.18A29.74,29.74,0,1,1,38.1,259.71c7.88-16,25.7-19.69,37.45-14.6-2.07,3.27-4.07,6.4-6,9.57a1.27,1.27,0,0,1-1.54.65,18.58,18.58,0,0,0-8.6.58A17.7,17.7,0,1,0,76.9,259.8l-1.41-1.31c2.11-3.35,4.2-6.65,6.28-9.94C91.88,254.57,98.8,270.63,91.69,285.53Zm-25.88-6.91a11.87,11.87,0,0,0,2.58-1.06.52.52,0,0,1,.49.13.42.42,0,0,1-.17.62A7.54,7.54,0,0,1,66,279.44c-.24,0-.42,0-.49-.22A.44.44,0,0,1,65.81,278.62ZM65.48,276c.06-.54.44-.69.9-.67.26,0,.43.2.51.49-.17.41-.59.51-1,.6S65.45,276.31,65.48,276Zm2-1.65c0-.48.12-.88.45-.91s.65.08.64.26a1.14,1.14,0,0,1-.6,1.09C67.73,274.87,67.44,274.65,67.44,274.35Zm.72-2.07c-.59-.14-.68-.59-.63-1.11,0-.27.34-.51.48-.43a1.33,1.33,0,0,1,.58,1.08C68.62,272.1,68.49,272.28,68.16,272.28ZM65,261.77c-.41.67-1,.6-1.65.68a10.37,10.37,0,1,0,9.49,3.72c-1.26-1.55-1.26-1.55-.2-3.23l1.76-2.8a15.77,15.77,0,0,1,4,21,15.94,15.94,0,0,1-28.28-14.47c2.89-7,11.26-11.49,17.75-9.37C66.9,258.79,65.94,260.26,65,261.77ZM60.85,277.7c0-.08.24-.16.32-.13q1.55.6,3.06,1.26c.06,0,.06.22.09.34a.35.35,0,0,1-.41.27,5.8,5.8,0,0,1-3.06-1.25C60.76,278.13,60.8,277.85,60.85,277.7Zm-.21-10.06c0-.51.45-.63.87-.74,0,0,.12.1.11.12-.17.39-.26.84-.79.89C60.78,267.91,60.64,267.73,60.64,267.64Zm3.09,8.63c0-.21.21-.27.38-.27s.13.13.2.2c0,.23-.21.25-.37.23S63.73,276.32,63.73,276.27Zm-5.23-2.82,1.59,2.87c.14.27,0,.45-.23.6s-.36,0-.46-.17A3.74,3.74,0,0,1,58.5,273.45Zm-.34-1.29a5,5,0,0,1,1.16-3.37c.09-.15.27-.32.47-.17s.36.33.21.62c-.5,1-1,2-1.46,3Zm12.72,1.39c0-.07.22-.1.33-.1a.31.31,0,0,1,.34.35,5.56,5.56,0,0,1-1.35,3c-.06.07-.23,0-.34.06s-.32-.26-.24-.44Q70.22,275,70.88,273.55Zm-1-4.89c.09-.06.4,0,.49.16a6.61,6.61,0,0,1,1.21,3c-.07.13-.12.36-.25.41a.4.4,0,0,1-.58-.28,8.78,8.78,0,0,0-1-2.61A.48.48,0,0,1,69.91,268.66ZM112.2,290.5c-2.7.13-2.73.13-3.42-2.48-1.35-5.18-2.32-10.46-3.81-15.61a74.09,74.09,0,0,0-8.64-20.07,40.94,40.94,0,0,0-9-10.12c-.82-.64-.89-1.09-.34-1.95a45.64,45.64,0,0,0,3.71-6.15c.27-.63.66-.69,1.18-.36s.73.5,1.08.77a46,46,0,0,1,17.28,25.29c2.42,9.1,3.51,18.44,4.61,26.34C115,290.54,115.6,290.34,112.2,290.5Zm1.48-47.84c8.45,13.68,10.41,28.29,6,43.75-.48,1.7-1.14,3.21-3.36,3.73-.45-7.44-1.85-14.62-3-21.83a76.59,76.59,0,0,0-2.39-10.49,47.73,47.73,0,0,0-16.48-23.69l-1.54-1.22a34.79,34.79,0,0,0,3.67-5.49c.78-1.22.78-1.24,2-.43A52.21,52.21,0,0,1,113.68,242.66Zm4.55-48.84q-9.6,15.38-19.17,30.78c-.18.3-.3.7-.79.65.33-1.35,18.7-32,20.22-33.71A2.29,2.29,0,0,1,118.23,193.82Zm5.66,25.2a1.46,1.46,0,0,1,1.54-1.13,1.33,1.33,0,0,1,1.15,1.49c0,.63,0,1.26,0,1.89a1,1,0,0,1-.78,1.07c-2,.72-2.07.7-2.07-1.45A5.88,5.88,0,0,1,123.89,219Zm12.35,13.42a1,1,0,0,1-.79.91c-2.94.93-5.83,2-8.8,2.82a6.65,6.65,0,0,1-5.77-1,4,4,0,0,1-1.7-4.28,8,8,0,0,1,4.19-5.76c2.33-1.24,4.77-2.26,7.14-3.43.8-.39,1.3,0,1.86.45,2.79,2.28,3.85,5.34,4,9C136.33,231.43,136.29,231.94,136.24,232.44Zm211-15.08a1.41,1.41,0,0,1,1.5.86,20.74,20.74,0,0,1,1.91,6.49,1.11,1.11,0,0,1-.87,1.41c-1.07.33-2.12.78-3.35,1.24a22.2,22.2,0,0,0-4.56-10C344,217.37,345.58,217.4,347.22,217.36Zm-5,2.69a16.79,16.79,0,0,1,2.67,6.57c.05.46.25,1-.26,1.39a1.16,1.16,0,0,1-2-.41,47.11,47.11,0,0,0-5.67-10C339.71,216.69,341.07,218.1,342.19,220.05Zm-71.47-14.9c9.14-2.85,18.43-4.72,28.06-4.61,8.54.11,16.66,1.84,24.06,6.24a40.18,40.18,0,0,1,14.48,14.36,115.43,115.43,0,0,1,7,13.2,103.7,103.7,0,0,0,6,11.36c-.63.14-.82-.41-1.12-.7a54.05,54.05,0,0,1-8.86-11.28A78.35,78.35,0,0,0,329,218.61c-5.6-5.68-12.05-9.93-19.95-11.67a40.86,40.86,0,0,0-20.56,1.12,68,68,0,0,0-14.37,6.2c-.91.51-1.83,1-2.94,1.6.35-2,1.48-3.66.9-5.55a11.42,11.42,0,0,0-2.7-4.45C269.71,205.26,270.26,205.29,270.72,205.15ZM269.42,192a19.68,19.68,0,0,1,.17,6.76,59.19,59.19,0,0,1-2,7.66c-.21.73-.59.87-1.25.6a17.63,17.63,0,0,1-4.05-2.41,35.75,35.75,0,0,1-4.92-4.69,87.21,87.21,0,0,1-9.74-13.77l7.78,1.62c4.13.87,8.25,1.78,12.39,2.56A1.79,1.79,0,0,1,269.42,192Zm-16.76,76.28a1.45,1.45,0,0,1-1.84,1.75.52.52,0,0,1-.47-.49,2.33,2.33,0,0,1,0-.37c-.06-8,.26-15.91,2.67-23.6a18.68,18.68,0,0,1,2-4.67c.59-.89.28-1.29-.44-1.8-2-1.42-4-2.88-6-4.33-.55-.41-1.09-.84-1.86-1.44A57.6,57.6,0,0,0,254.5,235a12.53,12.53,0,0,1,5.5,2.15c.13.63-.33.95-.59,1.35A43,43,0,0,0,252.66,268.29Zm-7.91-65.76,3.08-1.94a9.63,9.63,0,0,0,.94-.63c.36-.29,1-.51.64-1.15s-.88-.14-1.27.09c-.91.55-1.78,1.2-2.71,1.73-1.88,1.07-1.43,1-2.65-.56a3.57,3.57,0,0,1-.94-1.42c1.37-.88,2.75-1.74,4.11-2.63.4-.26,1-.56.57-1.16s-.9-.07-1.31.18c-1.07.66-2.15,1.31-3.2,2-.78.51-1.35.5-1.83-.39a9.06,9.06,0,0,1-1-1.66c1.42-.89,2.87-1.77,4.27-2.7.43-.29,1.25-.56.8-1.24s-1-.08-1.47.21c-1.24.75-2.48,1.5-3.7,2.28-.52.34-.89.35-1.24-.23s-.89-1.35-1.44-2.17c1.25-.65,2.4-1.25,3.54-1.86.61-.33,1.22-.68,1.81-1,.37-.22.55-.54.26-.93a.6.6,0,0,0-.84-.12c-1.45.77-2.92,1.49-4.34,2.32-.91.53-1.41.3-1.91-.57-1-1.7-1.26-1.51.59-2.41,1-.47,1.9-1,2.85-1.49,1.78-.94,3-.59,4.06,1.14a101.16,101.16,0,0,0,13,17.64,30.8,30.8,0,0,0,9.55,7.33c.71.32.75.65.47,1.29-.57,1.33-1.09,2.69-1.58,4-.26.71-.61.79-1.28.54a23.05,23.05,0,0,1-3.6-1.66C253.35,212.13,249,207.53,244.75,202.53Zm-11-16.53c-.44.23-.69.07-.91-.3l-1.78-3,6.25,1.31A23,23,0,0,1,233.79,186Zm31.51,24a21.68,21.68,0,0,1-4-2.46,52.29,52.29,0,0,1-8.63-8.71,114.3,114.3,0,0,1-8.76-12.53c-.13-.21-.22-.43-.41-.79a3.1,3.1,0,0,1,3.37,1.81,75.8,75.8,0,0,0,10,13.94c2.66,2.89,5.49,5.58,9.26,7,.9.33.47.81.33,1.33C266.26,210.31,265.83,210.25,265.3,210Zm3.36-26.49v5.77l-40-8.31a8.38,8.38,0,0,1,1.1-2.48c1.61-3.18,1.63-3.25,5.26-2.55,4.63.91,9.23,2,13.85,2.93,6,1.26,11.91,2.69,17.94,3.7.43.08.86.21,1.29.29A.6.6,0,0,1,268.66,183.51Zm-34.13-12c0-.75,0-1.51.13-2.25a1.14,1.14,0,0,1,1.26-1.12c.76.06,1,.61,1,1.31,0,1.31-.06,2.63-.16,3.93-.05.68-.4,1.22-1.18,1.21s-1.13-.63-1.12-1.4c0-.56,0-1.12.07-1.68Zm3.37.32h0c.05-.81,0-1.64.15-2.44a1.1,1.1,0,0,1,1.32-1,1,1,0,0,1,1,1.17c0,1.38-.09,2.76-.19,4.13a1.13,1.13,0,0,1-1.23,1.15,1.11,1.11,0,0,1-1.07-1.29C237.91,172.92,237.9,172.35,237.9,171.79Zm3.49.65c.09-1.13.13-1.94.22-2.75s.41-1.22,1.19-1.2a1.12,1.12,0,0,1,1.14,1.24c0,1.44-.15,2.88-.3,4.31a1,1,0,0,1-1.22.9,1,1,0,0,1-1-1.12C241.37,173.25,241.39,172.69,241.39,172.44Zm3.72-2.84a1,1,0,0,1,1-.91,1.07,1.07,0,0,1,1.18,1,20.9,20.9,0,0,1,0,2.24h-.11c-.05.75-.07,1.51-.16,2.25a1.13,1.13,0,0,1-2.26-.08A25,25,0,0,1,245.11,169.6Zm3.14,4.58c0-1.44.14-2.88.28-4.31a1,1,0,0,1,1.16-1,1.12,1.12,0,0,1,1.1,1.08,16.67,16.67,0,0,1,0,1.87h-.07c-.07.81-.11,1.63-.2,2.44a1.14,1.14,0,0,1-2.28-.09Zm3.42,0c.08-1.37.18-2.74.29-4.11a1,1,0,0,1,1.13-1,1.06,1.06,0,0,1,1.13,1,12,12,0,0,1,0,1.33c-.1,1.17-.19,2-.24,2.79s-.38,1.36-1.25,1.27A1.1,1.1,0,0,1,251.67,174.22Zm3.51.28c0-1.43.14-2.87.3-4.29a1,1,0,0,1,1.2-.94,1.06,1.06,0,0,1,1,1.13c0,.62,0,1.25,0,1.72-.08,1-.12,1.78-.23,2.58a1,1,0,0,1-1.14,1A1.07,1.07,0,0,1,255.18,174.5Zm-.12-126.35c.55-1.38,1.12-2.76,1.71-4.12.09-.21.27-.43.58-.27s.32.26.24.43c-.75,1.46-1,3.19-2.17,4.44,0,0-.12,0-.22,0C255.15,48.47,255,48.27,255.06,48.15Zm-1.73,0c-.17-.54-.31-.74-.26-.86.54-1.39,1.11-2.77,1.69-4.15a.39.39,0,0,1,.44-.26c.21,0,.36.21.3.39A19.9,19.9,0,0,1,253.33,48.12Zm3.78.87c.57-1.39,1.17-2.78,1.75-4.17.09-.22.27-.23.46-.22s.36.2.3.39a29.83,29.83,0,0,1-1.82,4.33c-.05.09-.2.12-.31.18C257.21,49.44,257,49.28,257.11,49Zm-1.9-7.48a1,1,0,0,1-.59-1.23.9.9,0,0,1,1-.65,4.83,4.83,0,0,1,.49.14c1.61.69,3.2,1.39,4.81,2.07.65.27,1.13.67.82,1.41s-1,.67-1.59.4Zm5.59-.94a26.61,26.61,0,0,0-3.11-1.32,1.82,1.82,0,0,1-1.25-1.69,4.3,4.3,0,0,1,1-3.33c1-1.23,1.73-1.38,3.26-.75.86.36,1.73.72,2.59,1.1,1.29.57,1.62,1.07,1.6,2.69a4.14,4.14,0,0,1-1.62,3A2.06,2.06,0,0,1,260.8,40.57Zm4-6.68c-1.86-.74-3.69-1.55-5.52-2.34a.82.82,0,0,1-.45-1.23c.21-.48.56-.7,1-.5,1.91.79,3.8,1.6,5.69,2.41a.74.74,0,0,1,.49.73A.91.91,0,0,1,264.83,33.89Zm-1.54-9.64a14.8,14.8,0,0,1-1.91,4.91A7,7,0,0,1,263.29,24.25Zm.06,5.55a10.48,10.48,0,0,1,1.93-4.73A10.23,10.23,0,0,1,263.35,29.8ZM266,28.23a4.58,4.58,0,0,1,1.61-2.6A28.54,28.54,0,0,1,265.54,31C264.92,29.71,265.74,29,266,28.23Zm-.51,11.11c.72-1.11.56-2.42.52-3.92l5.67,2.33c3.71,1.48,5.4,4.34,5.67,8.19A24.39,24.39,0,0,1,276,54.86a23.13,23.13,0,0,1-2.1,5.25c-1-.74-2.24-1.24-2.69-2.14s.48-2.09.72-3.18c.37-1.66.75-3.31,1.13-5,.1-.43,0-.8-.43-.9s-.54.24-.67.55a61.64,61.64,0,0,1-2.52,5.7c-1.09,2-.79,1.66-2.7,1.39-.91-.13-1.83-.23-2.91-.37.84-1.3,1.62-2.5,2.39-3.71.54-.85,1.07-1.7,1.58-2.58,2.1-3.61,1.48-6.61-2-9C265.07,40.41,265,40.08,265.5,39.34Zm2,18.54c0,.56-.48.75-.64,1.14a1.54,1.54,0,0,0,2.54,1.72,1.79,1.79,0,0,1,.13-.14c.46-.4.48-1.36,1.19-1.34s1.2.65,1.71,1.11a11.7,11.7,0,0,1,4.05,11.39,11.82,11.82,0,0,1-8.15,9.37c-.86.31-1.67.5-2.39-.36a2.78,2.78,0,0,0-1-.57c-1.73-.83-1.73-.83-1-2.67s1.66-3.68,2.33-5.58a2.82,2.82,0,0,0-3.25-3.87A2.93,2.93,0,0,0,261,70c-1,2.32-2,4.62-3.05,7.08-1.1-.29-2-.87-3-.8-.72.05-.86-.64-1.12-1.12a12.14,12.14,0,0,1,7.59-17.34A10.3,10.3,0,0,1,267.49,57.88Zm-1.6,78.05a1.71,1.71,0,0,1,2.05-1.18c3.14.23,6.28.5,9.42.77A1.91,1.91,0,0,1,279,137Zm13,2.21c0,.66-.56.78-.94,1A1.57,1.57,0,0,1,278.85,138.14Zm-5.32,1.09a2.42,2.42,0,0,1,1.59-1.47A4.07,4.07,0,0,1,273.53,139.23Zm.68,7.59c.11-.82.21-1.6.3-2.37,0,.47.07.94.11,1.41,0,.32.05.66.46.7s.54-.29.6-.58c.24-1.17.44-2.35.66-3.52,0-.23,0-.51.17-.63.25,1.74-.27,3.45-.28,5.41A3.56,3.56,0,0,0,274.21,146.82Zm1.52,2.05a.88.88,0,0,1-.82.89.8.8,0,0,1-.9-.94.79.79,0,0,1,.87-.79C275.4,148,275.62,148.42,275.73,148.87Zm0-9.73a2.19,2.19,0,0,1,1.3-1.27C276.7,138.62,276.36,139,275.75,139.14Zm-3,5.64a2.47,2.47,0,0,1-.34,1.52,6.3,6.3,0,0,1,.26-2.89A5.71,5.71,0,0,1,272.77,144.78Zm-2.15,2a15.53,15.53,0,0,1,.45-5,1.26,1.26,0,0,1,0,.27c0,.55-.09,1.11-.11,1.67s0,1.13,0,1.69c0,1,0,1.11,1.11,1.15A4.54,4.54,0,0,1,270.62,146.8Zm1.63,2a.79.79,0,0,1-.79.87c-.48,0-.86-.15-.9-.7a.78.78,0,0,1,.86-.95A.78.78,0,0,1,272.25,148.77ZM270,137.31a1.79,1.79,0,0,1,.92,1.44A2,2,0,0,1,270,137.31Zm2.8.68c-.08.18-.26.24-.51.21a.38.38,0,0,1-.25-.4c.05-.35.33-.29.56-.23A.29.29,0,0,1,272.83,138ZM269,145.88c0,.22,0,.54-.41.45a.43.43,0,0,1-.3-.58l.93-4.51C269.55,142.86,269,144.36,269,145.88Zm-9-.31c-.08-3.78-.16-7.56-.22-11.34a8.89,8.89,0,0,1,.06-2.76l9.06,1.93c-.53.37-1,.16-1.5.2a3,3,0,0,0-2.7,2,2.55,2.55,0,0,0,.72,3.1,2.16,2.16,0,0,1,.85,2.45c-.33,2.24-.23,4.52-.71,6.85a27.09,27.09,0,0,1-4.93-1.1C259.82,146.74,260,146.1,260,145.57Zm-2.52-52.74c1.06-2.48,2.12-5,3.24-7.62.47.17.77.25,1,.37s.44.24.85.46c-1.09,2.57-2.17,5.15-3.3,7.71a.92.92,0,0,1-1.39.51A1,1,0,0,1,257.48,92.83Zm-1.33-.9c-.28.66-.65,1.34-1.53.95s-.72-1-.4-1.76c.89-2,1.72-4,2.6-6.06.57-1.32.58-1.32,1.87-.76a2.59,2.59,0,0,1,.33.17,1.25,1.25,0,0,1,.17.27C258.2,87.09,257.18,89.51,256.15,91.93ZM263,90.39a1.92,1.92,0,0,0,1.19-1.79c-.14-1.36.67-1.57,1.68-1.7.37-.05.71-.29,1.24-.11.15,2.82.35,5.69.45,8.56,0,1.11.63,2.5-.09,3.26s-2,.58-3,.83l-1.7.39c-.58-1.64-.5-3.36-.83-5-.11-.56-.14-1.12-.23-1.68C261.38,91.3,261.37,91.3,263,90.39Zm3.13-4.85a3.82,3.82,0,0,1,.9-1.15C267.4,85.34,267,85.61,266.11,85.54Zm-1.71,15.15c3.45-.68,3.43-.68,3.55,2.87.25,7,.53,14.1.79,21.15a2.67,2.67,0,0,1-.21,1.7c-2.62-.55-5.2-1.1-7.79-1.63a1.28,1.28,0,0,1-1.21-1.49c0-5.42-.21-10.84-.28-16.25C259.2,103.44,260.92,101.38,264.4,100.69ZM274,82.21a1.17,1.17,0,0,1,.85,1.27c-.05,1.23,0,2.46,0,3.82a52.12,52.12,0,0,0-5.67-1.62c-.64-.14-1-.43-.9-1.15a12.71,12.71,0,0,0,0-1.51c0-.39.06-.75.51-.89a14.24,14.24,0,0,0,5.92-3.95v2.95c-.12,0-.17.07-.22.06-.57-.08-1.36-.77-1.67-.06S273.49,82,274,82.21Zm1.13,19.89c.06,2.26.12,4.53.14,6.79,0,3.14,0,6.29,0,9.6l-5-1.35a1,1,0,0,1-.83-1.06c-.17-5.59-.38-11.17-.58-16.94a24.45,24.45,0,0,1,5.8,1.63C275.32,101,275.14,101.62,275.15,102.1Zm.25,30.1c-1.51-.42-3-.85-4.52-1.24a.84.84,0,0,1-.76-.91v-2.27a29.89,29.89,0,0,1,4.5,1.14c.63.18,1,.48,1,1.16A4.74,4.74,0,0,1,275.4,132.2Zm0-4.26-4.66-1.22c-.54-.14-.9-.39-.86-1a10.44,10.44,0,0,1,.07-2.43,9.8,9.8,0,0,1,2.91.61C275.76,124.63,275.75,124.66,275.4,127.94Zm.09-7.1c0,.81,0,1.62,0,2.6-1.78-.46-3.28-.87-4.79-1.24-.63-.16-1-.46-.95-1.16a14.28,14.28,0,0,1,0-2.84,41.32,41.32,0,0,1,4.75,1.28A1.18,1.18,0,0,1,275.49,120.84Zm-.4-21.23L269.43,98a.93.93,0,0,1-.68-1V93a36.87,36.87,0,0,1,5.63,1.61c.6.19.72.6.71,1.15C275.08,97,275.09,98.21,275.09,99.61ZM275,93.5l-5.82-1.67a.82.82,0,0,1-.61-.85c-.07-1.37-.14-2.74-.22-4.33A34.53,34.53,0,0,1,274,88.22a1.26,1.26,0,0,1,1,1.38C275,90.85,275,92.11,275,93.5Zm-15.27,32.22c2.73.55,5.37,1.11,8,1.59.91.17,1.28.57,1.23,1.49s0,2.12,0,3.3a48.89,48.89,0,0,1-6.84-1.27c-2.51-.52-2.51-.57-2.52-3.1A5.41,5.41,0,0,1,259.74,125.72Zm6,11.6c.71,0,.71,0,1.41,1.16A1.68,1.68,0,0,1,265.78,137.32Zm2.2,10.07a.8.8,0,0,1,.81.84.83.83,0,0,1-.77.9.87.87,0,0,1,0-1.74Zm.12-9.88c.62.05.77.51,1,1C268.29,138.61,268.47,137.76,268.1,137.51Zm6.17-3.4c-.87,0-1.74-.1-2.61-.17-1.46-.11-1.46-.12-1.32-1.92a21,21,0,0,1,5.38,1.68C275.25,134.53,274.72,134.13,274.27,134.11ZM262.2,78.94c-3.32-1.2-3.32-1.2-2-4.22.65-1.5,1.28-3,1.94-4.51a1.67,1.67,0,0,1,1.82-1.06,1.69,1.69,0,0,1,1.49,1.26,1.62,1.62,0,0,1-.13,1.28C264.29,74.06,263.27,76.43,262.2,78.94Zm-8.74-.49a1.92,1.92,0,0,1,1.85-1,7,7,0,0,1,.93.25l8.33,3.56a2.57,2.57,0,0,1,.65.36,1.83,1.83,0,0,1,.56,2.36,1.87,1.87,0,0,1-2.19,1,18.76,18.76,0,0,1-2.1-.84c-2.26-1-4.52-1.89-6.76-2.89C253.29,80.65,252.84,79.55,253.46,78.45Zm.52,4.08a2.07,2.07,0,0,1,1.25.29c.52.16.71.47.48,1-1,2.37-2,4.74-3,7.1a1,1,0,0,1-1.4.55,1,1,0,0,1-.46-1.44C251.89,87.49,253,85,254,82.53Zm-2.53,10.12a2.09,2.09,0,0,1,2.22.92c.61.76,1.68.24,2.42.47s1,1.37,2.05,1.44,1.77-.45,2.49-1.58c.28,1.94.5,3.5.75,5a1.3,1.3,0,0,1-.58,1.45,7,7,0,0,0-2.32,3.15,1.37,1.37,0,0,1-1.4,1A28.35,28.35,0,0,1,246.31,103a1.81,1.81,0,0,1-1.3-1.38c-1-3.75-3.62-5.46-7.47-5.09-.25,0-.49.11-.74.13s-.67-.07-.71-.44.25-.35.51-.41A91,91,0,0,0,249,91.82c.48-.19.8-.22,1.15.18A1.53,1.53,0,0,0,251.45,92.65Zm7.77,77.27a15,15,0,0,0,1.5,3.73,1.61,1.61,0,0,1,.17,1.43,1,1,0,0,1-1.15.74c-.55,0-1.08-.22-1.08-.82A17.42,17.42,0,0,1,259.22,169.92Zm20.17-2.28c-.24-.6-.44-1.2-.71-1.76a.49.49,0,0,0-.92.32,15.54,15.54,0,0,0,.6,2,2,2,0,0,1-.23,2.13c-.54.77-1,1.58-1.55,2.36-2.28,3.34-5.54,4.41-9.4,3.93a7.35,7.35,0,0,1-6.6-7.12c-.2-3.77-.2-7.56-.26-11.34,0-1.44,0-2.88,0-4.44a18.94,18.94,0,0,1,3.7.73,89,89,0,0,0,11,1.64c1,.06,1.7.35,1.9,1.54a14.08,14.08,0,0,0,1,3c.2.49.12,1.54,1,1.22.71-.26.16-1,0-1.48-.38-1.26-.8-2.51-1.27-3.94h7.37C284.91,158,280.94,165.75,279.39,167.64Zm6.91-12.87c-.34.73-1,.69-1.62.68-2.52-.08-5.05-.11-7.56-.28a88.27,88.27,0,0,1-15.49-2.45c-1.42-.36-1.43-.37-1.5-1.84,0-.88,0-1.76,0-2.86l5.09,1.17a1.4,1.4,0,0,1,.82.43,2.26,2.26,0,0,0,2.9.59c.16-.08.45-.21.51-.15,1.42,1.38,3.34,0,4.87.9.61.35,1.36,0,2.05,0,3.65.2,7.3.41,11,.34.09,0,.19.12.45.29C287.3,152.63,286.79,153.69,286.3,154.77Zm7.45-18c-1.41,4.11-3.07,8.12-4.74,12.13a1.79,1.79,0,0,1-2,1.31c-1.76-.07-3.53-.07-5.3,0a1.41,1.41,0,0,1-1.63-1.17c-.23-.91-.57-1.8-.87-2.69-.11-.31-.3-.6-.68-.52s-.46.55-.35.9c.3,1,.65,2,1,3-.65.39-1.27.09-2.07.17.14-1.94.27-3.79.42-5.65,0-.63.18-1.25.17-1.88a2.57,2.57,0,0,1,1.35-2.6,2.79,2.79,0,0,0,.9-3.54,11.9,11.9,0,0,0-.89-1.43c2.26.15,4.33.31,6.4.42a1.1,1.1,0,0,1,1.2.91,24.3,24.3,0,0,0,1.07,3.22c.23.54.11,1.73,1.09,1.39.75-.25.11-1.08,0-1.63-.34-1.14-.72-2.27-1.13-3.54a12.74,12.74,0,0,1,3.19-.1c1,0,2,0,2.94,0C294.24,136,293.88,136.39,293.75,136.77Zm2.07-6.13c-.4,1.18-.5,2.69-1.3,3.46s-2.4.25-3.65.25c-4.22,0-8.41-.45-12.61-.83-1.54-.14-1.54-.19-1.56-1.68,0-.94,0-1.87,0-3.05a168.39,168.39,0,0,0,19.13,1.13A3.19,3.19,0,0,1,295.82,130.64Zm9-33.55.89-1c1.26-1.49,1.26-1.49,3.06-.49C307.19,98.08,307.69,97.73,304.79,97.09Zm5-10c.89.7.89.7-.42,2.17A4.84,4.84,0,0,1,307.59,88C308.75,86.31,308.77,86.31,309.78,87.1Zm-.09-1.51c.48-.53.83-.88,1.14-1.26.47-.59.9-.43,1.41,0s.26.73,0,1.09l-.32.46c-.68,1-.68,1-1.7.2Zm-4.08.83c-.57-.51-.32-.82.11-1.17.84-.67,1-1.29,2.16.44C306.55,87.24,306.51,87.23,305.61,86.42Zm.92,2.43a11.29,11.29,0,0,1,2.13,1.42,12.84,12.84,0,0,1-1.88,2.56,6.67,6.67,0,0,1-2.16-1.8C305.27,90.28,305.88,89.58,306.53,88.85Zm2.94,5.72a4.32,4.32,0,0,1-1.64-.84c0-.54.41-.79.63-1.15.62-1,1.25-1.91,2.64-1.08a.34.34,0,0,0,.16,0A18.85,18.85,0,0,1,309.47,94.57Zm4.82-8.2c-.94,1.56-1.55,3.32-2.84,4.66v0c0-.12,0-.26,0-.34-.23-.36-1-.47-.83-.88.26-.56.49-1.36,1.35-1.4.59,0,.8-.3.63-.86-.27-.89.57-1.29.88-1.91a.45.45,0,0,1,.67-.09A.51.51,0,0,1,314.29,86.37Zm2.27-8.47c.12-.37.48-.34.77-.33.57,0,.68.43.64.91a5.34,5.34,0,0,1-.12.57.89.89,0,0,1-.81-.25C316.74,78.57,316.43,78.33,316.56,77.9Zm-2.18.41c.54-.22,1-.23,1.19.43s1,1.05,1.82,1.46l-2,4.06c-.15.3-.34.57-.7.29s-.21-.43-.07-.67c.38-.58.77-1.15,1.14-1.74.23-.37.56-.81,0-1.12s-.68.14-.89.47c-.38.58-.76,1.16-1.15,1.73-.19.28-.44.46-.78.21s-.66-.44-.29-.89a2.11,2.11,0,0,0,.25-.27c.16-.28.28-.59,0-.85s-.47-.09-.68.06a3.4,3.4,0,0,0-.3.23c-.74.61-1,.09-1.12-.52a2.93,2.93,0,0,0-.38-1.24Zm-4,4.54c0,.43-1.35,1.86-1.64,1.77a1.18,1.18,0,0,1-.95-1c0-.29,1.55-1.52,1.85-1.45S310.24,82.63,310.42,82.85Zm-1.47-2a6.12,6.12,0,0,1-2,1.77.35.35,0,0,1-.46-.17.31.31,0,0,1,.08-.46A8.18,8.18,0,0,1,309,80.86Zm4.26-21.43c.16.39.43.79,0,1-.2.09-.55.08-.62-.21C312.44,59.74,313.15,59.86,313.21,59.43Zm-.43,2.16c.72.23,1.36.06,1.5-.91,0-.18.23-.79.73-.58a.87.87,0,0,1,.61,1,8,8,0,0,1-.53,1.41c-2.62,5.94-5.57,11.73-8.37,17.59-.42.87-1.21,1-2,1.57a3.29,3.29,0,0,1,.48-2c2.18-5.71,4.34-11.42,6.19-17.25C311.66,61.64,311.86,61.3,312.78,61.59ZM294.61,81l-1.63-.4c-.77-.2-1.83,0-2.26-.62s-.13-1.46-.12-2.21a67.86,67.86,0,0,1,.76-10.93,13.7,13.7,0,0,1,.67-2.35,4.39,4.39,0,0,1,4.24-3.18,6,6,0,0,0,4.28-1.7,4.33,4.33,0,0,1,2.61-1,23,23,0,0,0,5.53-1.13c1.54-.6,2.44.18,2.3,1.87a15.63,15.63,0,0,1-.84,3.48c-1.79,5.45-3.85,10.8-5.84,16.17-.36,1-1.08,1.87-.78,3,.11.39-.29.53-.54.66a4.23,4.23,0,0,1-1.67.76c.13-1.26.23-2.48.38-3.69a2.62,2.62,0,0,0-1-2.7c-.71-.49-.57-1-.36-1.62a25.29,25.29,0,0,0,.9-4.82,9.65,9.65,0,0,0-1.73-6.43c-.23-.37-.41-.85-1-.72s-.39.58-.41.93a11.61,11.61,0,0,1-1.75,5.34c-1,1.66-1.42,3.3-.46,5.17a2.39,2.39,0,0,1-.24,3C295,78.65,295,79.84,294.61,81Zm4.91-10.28c-.06-1.21.46-2.5-.59-3.58-.18-.18,0-.72.33-1,1.58,2.58.91,5.2.27,8.11C299.53,72.82,299.56,71.75,299.52,70.69Zm-1-2.06c-.14,2.7-.26,5.08-.38,7.57C296,74.75,296.11,71.77,298.56,68.63Zm-2.44,13.05c-.05,0-.12-.08-.13-.12a4.52,4.52,0,0,1,.82-3.37,1.9,1.9,0,0,1,2.32-.76c.79.21,1.47.65,1.46,1.5a21.54,21.54,0,0,1-.78,5.88A20.6,20.6,0,0,0,296.12,81.68Zm4.09,4c1.41-.83,2.81-1.65,4.2-2.49.39-.23.74-.47,1.15,0s0,.78-.32,1c-.52.48-1,1.24-1.81.29a.4.4,0,0,0-.64.06c-.09.15-.16.45-.09.51.77.68.27,1.3,0,2-.15.39.35.87.62.54,1.11-1.31,1.63-.24,2.34.43a13.9,13.9,0,0,1-1.92,2.23C302.31,88.9,300.73,87.77,300.21,85.64Zm1.25,4.48c1.53.75,1.53.75.83,2a2,2,0,0,0-.27.49.72.72,0,0,0,.11.52c.18.24.43.15.66,0,.47-.26.58-1.17,1.24-.94a6.75,6.75,0,0,1,1.48,1.14c.48.37.36.72,0,1.11-.66.75-1.32,1.51-2,2.28a1.67,1.67,0,0,1-1.16.54c-.93.13-1.85.31-2.95.5A13.37,13.37,0,0,0,301.46,90.12Zm1.64,8.29a15.34,15.34,0,0,1,6.66,1c.94.35,1.88.73,2.84,1,1.51.44,3,.87,4.82,0a4.65,4.65,0,0,1-2.46,4.63,24,24,0,0,1-7.8,2.72,18.47,18.47,0,0,1-3.93.42c-.58,0-1-.13-1.07-.76-.58-3-2.55-4.65-5.37-5.45a9.05,9.05,0,0,1-.94-.37C297.71,99.27,300.32,98.62,303.1,98.41Zm-15.37,2.34a66.31,66.31,0,0,1,9.28,2.53c3.25,1.16,4.6,3.51,4,6.92a21.61,21.61,0,0,1-.92,4c-.53-.51-.34-1.67-1.21-1.33s-.22,1.12,0,1.64a6.52,6.52,0,0,1,.17,4.76c-.63,2-1.11,4.14-1.66,6.2,0,.11-.15.19-.25.31-.44,0-.32-.44-.52-.62s-.4-.31-.66-.15a.56.56,0,0,0-.26.65c.14.48.31,1,.46,1.44.51,1.64.45,1.76-1.2,1.73-2.58,0-5.17-.07-7.75-.23-3-.18-6-.48-9-.77-1.47-.15-1.48-.2-1.5-1.57q-.19-12.37-.38-24.76v-.19c0-1.78,0-1.8,1.72-1.72A65,65,0,0,1,287.73,100.75ZM283.4,76.56c.91.09,1.15.54.9,1.42s-.35,1.85-.51,2.78a4.06,4.06,0,0,1-1.32,2.41A10.84,10.84,0,0,0,279,90.49a7.82,7.82,0,0,0,3.21,7.27l.91.67s0,.12,0,.36a47.22,47.22,0,0,0-6.14-.51c-.75,0-.73-.52-.74-1-.05-2.46-.11-4.92-.15-7.38-.06-3.21,0-6.43-.2-9.64-.08-1.66,1-2.63,1.78-3.82a.83.83,0,0,1,.85-.28ZM243.24,14.14A110.41,110.41,0,0,1,256,17.74,170.38,170.38,0,0,1,289.78,33.2a11.81,11.81,0,0,1,6,8.94,11.63,11.63,0,0,1-2.1,8.24Q286,61.8,278.4,73.2c-.69,1-1.45,2.06-2.18,3.08a.63.63,0,0,1-.11.12l-.05-.14c2.46-5,2.41-9.74-.76-14.34a1.66,1.66,0,0,1,0-1.88,38.25,38.25,0,0,0,3.08-10.68,16.3,16.3,0,0,0-.27-5.83A9,9,0,0,0,273,37.12c-1.94-.9-3.94-1.68-6-2.56.28-1,.77-2,0-3-.27-.35.09-.71.22-1,.46-1.1,1-2.19,1.4-3.31.57-1.52.18-2-1.32-2.7A17.39,17.39,0,0,1,264,23.14a1.53,1.53,0,0,0-2.36.72c-.35.66-.61,1.38-.91,2.07-.51,1.19-.79,2.45-2.32,2.94-.86.28-.85,1.47-1.22,2.34-4.36-1.33-8.67-2.7-13-3.82-1.47-.38-2.93-.76-4.41-1.1A1.27,1.27,0,0,1,238.65,25c-.24-1.94-.64-3.86-.87-5.8A4.61,4.61,0,0,1,243.24,14.14Zm-16.6,15.91a6.1,6.1,0,0,1,6.86-3.89,80.69,80.69,0,0,1,10,2.16c4.26,1.13,8.49,2.36,12.68,3.72.36.12.74.16,1,.49-1.66,2.17-1.66,2.17-2.15,5.08Zm6.9,65.11a26.86,26.86,0,0,1-10.33-.61c-.37-.1-.72-.22-1.08-.35C218.64,93,218,91.45,219.37,88c.57-1.39,1.3-2.72,2-4.09,1.19-2.48,1.09-2.82-1.22-4.23A15.2,15.2,0,0,1,217,77.51a2.17,2.17,0,0,1-.09-3.21,1.73,1.73,0,0,1,2-.66,13.52,13.52,0,0,0,6.2.16c.35-.07.84,0,.71-.6-.08-.4-.48-.31-.77-.28a24.32,24.32,0,0,1-4.35.09,9,9,0,0,1-4.9-1.82c-1.21-1-1.34-1.45-.83-2.92a15.16,15.16,0,0,0,.77-4.62,28.93,28.93,0,0,0,3.22.9,3.52,3.52,0,0,0,4.25-2.81c.06-.35.19-.81-.32-.94s-.6.23-.77.61c-.84,2-1.74,2.44-3.81,1.87a8.06,8.06,0,0,1-1.42-.52c-1.78-.94-3.54-1.93-5.36-2.79-1.37-.64-1.44-1.51-.27-2.44a18.65,18.65,0,0,1,2.55-1.62,92.49,92.49,0,0,1,9.38-4.46c.41-.17.84-.29,1.23-.49.58-.3.72-.69.14-1.14l-.31-.22c-1.95-1.5-2-1.56-.26-3.21,4.24-4.06,8.79-7.77,13.3-11.53a1.72,1.72,0,0,1,1.73-.39c5,1.38,10.1,2.72,15.31,4.12-.75,1-1.2,2.09-.5,3.27.27.45-.1.84-.26,1.24-.48,1.16-1,2.3-1.47,3.48-.48,1.34-.1,1.91,1.27,2.39a23.57,23.57,0,0,1,3,1.28c1.36.71,2,.56,2.67-.86.51-1.09,1-2.2,1.41-3.31a1.8,1.8,0,0,1,1.23-1.27A2,2,0,0,0,263,42.75c.08-1.43.7-1.73,2-1.08a4.94,4.94,0,0,1,2.23,7c-1.33,2.44-2.91,4.73-4.44,7a2.88,2.88,0,0,1-1.88,1.08,13.23,13.23,0,0,0-9.6,13.41,12.22,12.22,0,0,0,1.58,5.59,1.25,1.25,0,0,1-.1,1.66,2.71,2.71,0,0,0-.14,3.5,1.54,1.54,0,0,1,.08,1.73c-1,2.26-2,4.5-2.89,6.79a2,2,0,0,1-1.25,1.27C243.68,92.64,238.77,94.47,233.54,95.16Zm5.15,2.7a5,5,0,1,1-.08,10.07,5,5,0,1,1,.08-10.07ZM232,139.21c1.81-1,3.58-2.11,5.38-3.17,4.66-2.75,9.12-5.83,13.84-8.52,3.63-2.06,5.48-5.47,6.36-9.43a4.56,4.56,0,0,0-2.09-5.08,8.27,8.27,0,0,0-5.92-1.39,12.24,12.24,0,0,0-6.16,2.58c-2.31,1.85-4.81,3.46-7.24,5.15-.5.36-1.05.65-1.72,1.06-.55-2.71-.81-5.32-1.13-7.89a9.62,9.62,0,0,1,1.12-4.5c2.07,1.28,4.26,1.89,6.61,1a6.55,6.55,0,0,0,4.14-5.14c.58-.34.94,0,1.34.16a28.62,28.62,0,0,0,10.42,1.48c1-.06,1.25.25,1.26,1.23.06,6.31.19,12.61.33,18.92a2.25,2.25,0,0,1-.88,2.1c-5.93,4.59-11.88,9.16-18.22,13.2a43.9,43.9,0,0,1-5.26,3,7.34,7.34,0,0,1-3,.88c0-1.46.05-2.78,0-4.1A1.42,1.42,0,0,1,232,139.21Zm-.81,30.1c0-.8.36-1.4,1.19-1.41s1.17.6,1.14,1.41c0,.5,0,1,0,1.2-.09,1.12-.12,1.94-.22,2.75a1.09,1.09,0,0,1-.9,1.07c-.68.11-1-.41-1.24-.92a2,2,0,0,1-.15-.91C231,171.44,231.1,170.37,231.14,169.31ZM225,123.66a4.43,4.43,0,0,1,3.77.08c0,.49-.45.56-.74.74-5.56,3.44-11.15,6.84-16.84,10.06l-.66.36c-.84.39-2,.33-2.22-.26a1.62,1.62,0,0,1,.68-1.93C213.93,129,219,125.55,225,123.66Zm-20.26,12.58c.23-3.34.49-6.67.67-10,.05-.93.47-1,1.22-.89,3.06.43,3.06.42,2.2,3.33l-2.31,7.79c-.13.41-.17.88-.7,1C205.12,137.65,204.68,137.17,204.75,136.24Zm.19,2.36a2.15,2.15,0,0,1,2,2.15,2.07,2.07,0,0,1-4.14,0A2.14,2.14,0,0,1,204.94,138.6Zm-2.09,7.26c.1-.36.23-.72.32-1.08a1,1,0,0,1,1.24-.85c.78.13.5.73.53,1-.25,3.53-.51,6.86-.7,10.19-.05.91-.43,1.08-1.19.89a2.33,2.33,0,0,0-.38,0c-2.7-.38-2.69-.38-1.9-3C201.47,150.57,202.15,148.22,202.85,145.86Zm-6.55-1.23c.78.61,1.53,1.26,2.59,2.14a25,25,0,0,1-3,.3,1.33,1.33,0,0,1-1.19-2.1C195.12,144.41,195.66,144.12,196.3,144.63Zm-3.92-3.31a26.17,26.17,0,0,0,2.55,2.16c-1.57,1.64-1.64,2.07-.67,4.12-1.27.1-2.49.21-3.7.26-2.15.09-4.29.15-6.43.2-1.42,0-1.46,0-1.3-1.48s-.14-3.38.78-4.59,2.79-1,4.12-1.62C189.6,139.42,191,139.85,192.38,141.32Zm-3.11-2.54c-1.89.86-3.74,1.25-5.52,1.87a1.28,1.28,0,0,1-.9-.07,37.92,37.92,0,0,1-9.46-4.23,3.5,3.5,0,0,0-3.85-.37c-1.13.57-1.75.18-2.06-1-.93-3.46-2.34-4.61-6-4.87-.23,0-.52.06-.53-.29.56-1.38,1.55-1.6,2.9-1.33a28.91,28.91,0,0,0,4,.42,5.28,5.28,0,0,0,4.3-1.58c.69-.72,1-.54,1.57.14a14.13,14.13,0,0,0,5.21,3.31c.4.17.86.12,1.23.44C183.14,133.72,186.15,136.2,189.27,138.78Zm-11.2,4.73a.92.92,0,0,0-.56,0c-2.44.91-4.13-.65-5.78-1.92a55.3,55.3,0,0,0-4.51-3.39c-.64-.4-1.72-1-1.1-1.83.44-.6,1.15.38,1.73.67,1.11.56,2,1.52,3.38,1.61a8.19,8.19,0,0,0,1.31,0c.21,0,.53,0,.52-.41s-.28-.41-.52-.42A3.25,3.25,0,0,1,170,137a1.66,1.66,0,0,1,2.28-.24,35.51,35.51,0,0,0,9.22,4.28c.82.23,1.07.57.87,1.48-.3,1.38-.4,2.82-.62,4.44-1.52-1.06-2.92-2.07-4.83-1.92.32-.68.67-.69,1.07-.59s.65.05.68-.37S178.37,143.6,178.07,143.51Zm-6.51,1.19c-1.33.93-1.33.93-2.68.3C170.62,143.84,170.62,143.84,171.56,144.7Zm-5-.59c1-1.25,1-1.25,2.34-.49A2.47,2.47,0,0,1,166.6,144.11Zm-14-20.83a1.32,1.32,0,0,1-.26-1.53c.44-1.51.82-3,1.28-4.54.13-.43.08-1.17.77-1.12.85.06,1.8-.61,2.52.11a16.08,16.08,0,0,0,2.75,2c-2.14,1.67-3.06,3.72-2.37,6.36a4.84,4.84,0,0,0,.17.54c.23.5.71,1,.64,1.5-.1.7-1,.91-1.49,1.35-.33.29-.75.48-1.06.78-.79.76-1.34.11-2-.24s-.6-1-.34-1.59A3.11,3.11,0,0,0,152.57,123.28Zm9.59-4.38c1.07-.06,2.14,0,3.21,0s2,0,3,0a4.45,4.45,0,0,1,4.26,4.63,4.37,4.37,0,0,1-4.72,4.12,30.77,30.77,0,0,1-5.44-.53c-3.18-.76-4.23-1.53-4.17-4.36A3.87,3.87,0,0,1,162.16,118.9Zm-3.37,9c.67-.48.69-.46,1.78.11a7.85,7.85,0,0,1-1.42,1.91c-1.34,1.66-1.35,1.65-3.16.08C156.93,129.3,157.85,128.58,158.79,127.91Zm-1.39,6.81c.92.35,1.72,1.11,2.42-.05.57-.95.52-1.31-.62-2.5.07-.1.11-.25.21-.29,1.5-.72,3.1-1,4.45.07.94.75,0,4.64-1.26,5.78a4.06,4.06,0,0,1-3.84,1.07C157.87,138.58,157.29,136.74,157.4,134.72ZM166,142.6c-.9.08-1.36-.53-1.82-1.15A2.71,2.71,0,0,1,166,142.6Zm11.34-14.09A6.19,6.19,0,0,1,175,127a1.67,1.67,0,0,1-.33-2.35,1.78,1.78,0,0,1,2.3-.75,8.12,8.12,0,0,1,2.41,1.55A15.29,15.29,0,0,1,177.33,128.51Zm2.38-1.66c.22-.28.32-.79.78-.72s.67.53.84.93a3.21,3.21,0,0,1,.16.6,2.07,2.07,0,0,1-1.66,2,1.37,1.37,0,0,1-1.38-.39c-.36-.47.21-.78.41-1.13A13.09,13.09,0,0,1,179.71,126.85Zm4.11-7.58c1.4.94,1.71,1.57,1.3,2.54A1.93,1.93,0,0,1,183,123c-.54-.07-.79-.29-.51-.87C183,121.2,183.39,120.24,183.82,119.27Zm-3-1.9a1.73,1.73,0,0,1,.33.17c1.95,1.21,1.93.81,1.06,2.95-.2.52-.49,1-.85,1.71-.92-.57-1.75-1-2.49-1.57a1.79,1.79,0,0,1-.5-2.49A2,2,0,0,1,180.85,117.37Zm-1.57-1.51a12.36,12.36,0,0,0-1.41,1,3.13,3.13,0,0,0,.07,4.55,8.51,8.51,0,0,0,.93.64c.42.27,1,.46.49,1.14s-.75.21-1.12,0c-1.91-.9-2.2-.9-4.17.08-1.14-4.43-2-5.09-7.53-5.81a1.05,1.05,0,0,1,0-.36c1.1-2.33,2.21-4.66,3.44-7.22ZM168,109c.77.51,1,1,.57,1.85-1,2-1.93,4-2.87,6a1.36,1.36,0,0,1-1.26.93c-2.17.1-5.13-.54-6.33-2.14a12.6,12.6,0,0,0,2.09-2.2,13.17,13.17,0,0,0,2.9,1.78c.49.15,1,.44,1.28-.22s-.36-.7-.72-.89-.93-.41-1.34-.68c-1.05-.71-1.85-1.54-1.4-3a2.86,2.86,0,0,0,0-1.13,1.24,1.24,0,0,1,1-1.55,4.59,4.59,0,0,0,1.95-1.65C165.31,107.08,166.61,108.08,168,109Zm-8-8.6a3.43,3.43,0,0,1,3.3,3.26,3.39,3.39,0,0,1-3.26,3.29,3.28,3.28,0,0,1,0-6.55Zm-7.79,3.19c.09-2.07-.08-4.17.55-6.19.33-1.07.71-1.21,1.64-.62a17.85,17.85,0,0,1,3.3,2.94c-.81.63-1.29,1.54-2.22,2-.5-.42-.3-1-.45-1.44a.67.67,0,0,0-.67-.55c-.35,0-.51.33-.5.69,0,.94.11,1.88.06,2.82a3.1,3.1,0,0,1-1.36,2.75A5.26,5.26,0,0,1,152.18,103.56Zm-1.43-3.62c.31,2,0,4,.41,5.94.1.45-.21.69-.65.68a.52.52,0,0,1-.53-.62C150.09,103.92,149.81,101.84,150.75,99.94Zm-.72,14.6a12.52,12.52,0,0,0,2.59,1.41c-1.62,6.53-5.89,18.57-8.53,23.72,1-3.51,1.85-7.07,3-10.53a37.52,37.52,0,0,0,1.56-13.26,4.86,4.86,0,0,1,0-.76c.06-.47-.29-1.14.29-1.37S149.69,114.24,150,114.54Zm-2.24-8.37a9.93,9.93,0,0,1,.58-2.59l.38.09c0,.86,0,1.73,0,2.59,0,.35.06.83-.5.77S147.77,106.54,147.79,106.17Zm-22.14,62.94a4,4,0,0,1,.53-1.85q8-20.72,16.11-41.42a11.51,11.51,0,0,0,.69-2.73,21.29,21.29,0,0,1,2.16-6.61c.42-.85,1.22-1.21,2.29-1.79,0,3.71.36,7.16-.59,10.52-2.87,10.13-5.71,20.26-8.78,30.33-1.25,4.09-3.05,8-4.58,12-.2.52-.45.88-1.06.88C130.15,168.45,127.92,168.93,125.65,169.11Zm7,14.25c.35-1.06.62-1.83.85-2.61.6-2,.45-2.31-1.64-3,.11-1.08.92-1.75,1.5-2.54a24.66,24.66,0,0,0,3.41-6c4.71-12.44,9.64-24.79,14.49-37.16.07-.18.17-.34.31-.62a30.3,30.3,0,0,1,4.24,2.28c.52.26.38.73.36,1.16a7.73,7.73,0,0,0,.19,2.44,5.67,5.67,0,0,0,4.94,4.11c1.91.29,2.87,1.52,4,2.63a3.58,3.58,0,0,0,1.82,1.22c1.19.23,2,1.18,3.18,1.54,1.74.52,2,.55,3.26-.8.41-.46.85-.91,1.37-1.44a6.7,6.7,0,0,0,3.76,1.76,4.5,4.5,0,0,1,3,2.05,1.5,1.5,0,0,0,1.66.74l12.11-.49c.88,0,1.76-.11,2.64-.14,1.9-.06,2.65,1,2.11,2.86-.38,1.34-.79,2.66-1.18,4-.13.44-.23.92.42,1a41.57,41.57,0,0,0,5.45.84c.14-1.32.28-2.57.37-3.81.05-.55.26-.76.82-.77a16.34,16.34,0,0,0,8.09-2.87c5-3,10-5.91,15-8.86.21-.12.43-.22.81-.41a47.78,47.78,0,0,1,.38,6.46c-.16,6.12-.37,12.23-.53,18.35-.07,2.71-.15,5.42,0,8.13,0,.24.18.6-.07.69-1.41.49-1.15,1.85-1.44,2.85-1.1,3.81-2.07,7.65-3.1,11.48-.4,1.49-.41,1.52-1.83,1.57a260.05,260.05,0,0,0-27.29,2.78,14.8,14.8,0,0,0-4.87,1.44,2.26,2.26,0,0,1-2.42-.1c-6-3.24-11.66-7-17.31-10.82q-4.63-3.12-9.29-6.19c-.73-.47-1.24-.92-1.13-1.93a2.65,2.65,0,0,0-1.42-2.5,47.07,47.07,0,0,0-9.08-5c-2.27-.88-3.34-.53-4.59,1.54-2.79,4.58-5.57,9.16-8.29,13.77a1.07,1.07,0,0,1-1.15.68C135.3,183.5,134.05,183.45,132.61,183.36Zm36.75,78.42q5.49.84,11,1.81a1.69,1.69,0,0,1,1.53,2.16c-.17,1.47-.81,2.07-2.29,2l-8.24-1.33c-.93-.15-1.87-.26-2.78-.5-1.16-.32-1.53-1.05-1.31-2.31S168.16,261.6,169.36,261.78Zm-.93-1.45c.83-2.81,1.67-5.63,2.52-8.44l4.5-14.83c.08-.24.15-.48.22-.72.16-.47.25-1.09,1-.85s.33.83.2,1.24q-3.44,11.4-6.9,22.79C169.71,260.26,169.49,260.87,168.43,260.33Zm4.73,8.09V268l7.51,1.14,0,.39C178.11,269.34,175.66,268.74,173.16,268.42Zm5.89,5.57c-.15,1.08-.09,2.25-.89,3.19a19.32,19.32,0,0,1,.94-6.45C179.8,271.84,179.21,272.93,179.05,274Zm-1.71-1.8c-.16,1.42-.44,2.83-.69,4.24,0,.25-.13.52-.48.4a.34.34,0,0,1-.25-.42q.53-3,1-6C177.85,271,177.41,271.63,177.34,272.19Zm-3.41,4.3a19.7,19.7,0,0,1,1-6.41A12.25,12.25,0,0,1,173.93,276.49Zm7-5.72c.57,1.17.08,5-.88,6.73A32.07,32.07,0,0,1,180.92,270.77Zm-7.78-1a28.07,28.07,0,0,1-1,6.82C171.66,275,172.27,271,173.14,269.77Zm8,9.25c2.16.36,2.16.37,2.38,3l-17.91-2.9c1.76-1.59,3.44-2.25,5.64-1.79C174.47,278,177.79,278.46,181.09,279Zm2.08-5.1c-.57-1.61-.44-3.36-1.17-4.89a.79.79,0,0,1,.18-.88,4.79,4.79,0,0,0,.95-2.28A5.77,5.77,0,0,1,183.17,273.92ZM181,261c-.09.24-.2.47-.29.7a.69.69,0,0,1-1,.45c-.56-.26-.19-.64-.07-.94,1.48-3.74,3-7.48,4.49-11.22l5.27-13.14c.19-.45.25-1,.7-1.28a1.13,1.13,0,0,1,.73-.07.37.37,0,0,1,.24.45l-.36.87Zm-3.61-26.84c-1.49,0-1.67-.26-1.26-1.67,1.23-4.16,2.52-8.31,3.72-12.48.25-.87.58-1.23,1.51-1.27,3.34-.16,6.67-.48,10-.62a73.6,73.6,0,0,1,7.58-.35,131,131,0,0,1-5.35,14.93,2.35,2.35,0,0,1-2.4,1.48C186.62,234.18,182,234.2,177.42,234.18Zm-17-56.81,10.54,7,1.94,1.34c-3.54-1.16-7-2.5-10.6-3.42a54.32,54.32,0,0,0-7.59-1.55,23.45,23.45,0,0,0-9.71,1,11,11,0,0,0-4.66,2.8c-.3.3-.55.8-1.08.47a1.19,1.19,0,0,1-.53-1.48,5,5,0,0,1,.54-1c2.58-4.27,5.15-8.53,7.75-12.78.91-1.5,1.38-1.67,2.94-1.08a44.79,44.79,0,0,1,8.91,4.93,1.74,1.74,0,0,1,.86,2.26C159.38,176.76,159.94,177,160.46,177.37Zm-24.67,18.55a23.58,23.58,0,0,1,1.37-4.32c2.92-6.78,8.54-10.1,16.18-9.69,5.23.29,10.14,2,15,3.72a113,113,0,0,1,19.27,9.18c.32.19.71.29,1,.83-5.5,4.19-7.91,10.14-9.3,16.63-.47,2.21-.47,1.84-2.11,1.93-8.25.47-16.5,1.13-24.78.53a27.69,27.69,0,0,1-6.32-1.14C138,211.06,134,204.21,135.79,195.92Zm8.54,57.69a23.78,23.78,0,0,1-3.55-7.88,7.34,7.34,0,0,1,.45-4.62,1.38,1.38,0,0,1,2-.94,7.19,7.19,0,0,1,2.47,1.35A25.16,25.16,0,0,1,150,246c4.63,6,8.72,12.35,12.85,18.68a4.4,4.4,0,0,1,.24.7c-2.56.67-5,1.3-7.42,2a1.43,1.43,0,0,1-1.79-.56C150.69,262.38,147.22,258.2,144.33,253.61Zm-.47,18.28c4.44-1.42,9-2.55,13.47-3.74,2.62-.7,5.26-1.32,7.87-2a1.45,1.45,0,0,1,1.69.32c.85.87,2.06.83,3.18,1,1.66.26,1.65.28,1.38,1.86-.3,1.8-.62,3.6-.87,5.42-.09.7-.23,1.13-1.09,1.17a7.27,7.27,0,0,0-4.42,2c-.89.79-1.71,1.17-2.79.49a4.7,4.7,0,0,0-1-.25,13.64,13.64,0,0,1,2.6-2.57,9.93,9.93,0,0,0,.86-.72.56.56,0,0,0,.07-.71.53.53,0,0,0-.81-.15,16.75,16.75,0,0,0-1.66,1.25,12.17,12.17,0,0,0-2.77,3.2,6.88,6.88,0,0,0-3-1.13,10.79,10.79,0,0,1,3-2.6c.31-.22.7-.45.49-.88s-.75-.41-1.12-.15a26.76,26.76,0,0,0-2.43,1.8c-.75.67-1.4,1.45-2.17,2.27a9.55,9.55,0,0,0-2.84-1.29,7.46,7.46,0,0,1,2-1.87c.4-.31.83-.56,1.25-.85s1-.57.58-1.16-.91-.09-1.32.17c-.58.36-1.15.76-1.71,1.18a14.28,14.28,0,0,0-2.69,2.74,9.32,9.32,0,0,0-2.58-1.41,12.32,12.32,0,0,1,2.82-2.06c.41-.25.8-.56.51-1s-.77-.24-1.18,0a24.11,24.11,0,0,0-4.48,3.37,5.68,5.68,0,0,0-3.43-1.81A3.54,3.54,0,0,1,143.86,271.89Zm14.3,7.25a3.72,3.72,0,0,1-2.89-.18A2.94,2.94,0,0,1,158.16,279.14Zm-4.7-.13a4.75,4.75,0,0,1-3.06-.79C151.94,277.65,152.35,277.74,153.46,279Zm-5-1.41c-1.32.18-1.63.13-3.39-.59C146.62,276.18,147.19,276.29,148.5,277.6Zm-4.66-.8c-1.39-.31-2.31-.61-2.91-1.73C142.34,274.87,143.08,275.51,143.84,276.8Zm-5.52-1.09c.73-.35,1.33-.61,1.82.44a3.34,3.34,0,0,0,2.45,1.62c2.08.5,4.07,1.35,6.26,1.33a.65.65,0,0,1,.37,0c2.12,1.42,4.64.9,6.94,1.4a5.93,5.93,0,0,0,1.88.07,7.85,7.85,0,0,1,3.34.22,2.72,2.72,0,0,0,2.2-.26,2.79,2.79,0,0,1,1.83-.24c3.16.51,6.33,1,9.5,1.55a1.58,1.58,0,0,1,1.11.5,13.35,13.35,0,0,1-5.5.77c-7.86-.52-15.71-1.13-23.41-2.89-2.21-.5-4.37-1.18-6.55-1.78a6.94,6.94,0,0,1-2.36-1.16C137.26,276.61,137.3,276.22,138.32,275.71Zm38.91,7.76a2,2,0,0,1-1.78,1.48c-.75.1-1.51.16-2.26.19A103.5,103.5,0,0,1,149,282.76a91.34,91.34,0,0,1-9.51-2.42,2.3,2.3,0,0,1-1.93-1.79c3.73,1.86,7.55,2.61,11.34,3.39a122.83,122.83,0,0,0,18.71,2.43A26.56,26.56,0,0,0,177.23,283.47Zm8.45,5.43a6.25,6.25,0,0,1-1.81.51,52.55,52.55,0,0,1-8.36.23,151.44,151.44,0,0,1-23.66-2.37c-4.1-.67-8.2-1.41-12.22-2.47-.73-.2-1.44-.48-2.16-.71a.92.92,0,0,1-.66-1.17c.09-.48.2-.84.86-.59,7.55,2.93,15.54,3.7,23.47,4.75a138.85,138.85,0,0,0,15.66,1.24,31.68,31.68,0,0,0,8.47-.47c.31-.08.64-.12.77.28A.6.6,0,0,1,185.68,288.9Zm53.62-7.73a7,7,0,0,1-4.11,5.52,18.86,18.86,0,0,1-8.79,1.91c-4.11,0-8.21,0-12.32,0q-12.4,0-24.81,0c-1.09,0-1.9,0-2.26-1.33-.23-.84-1.12-1.3-1.95-1.69a32.2,32.2,0,0,0-5.55-1.83c-.4-.11-.74-.21-.61-.73s.52-.41.89-.36l.18,0,2.8.48c2.34.4,2.44.3,2-2,0-.18,0-.36-.08-.65a3.88,3.88,0,0,1,2-.2h43.2c1.63,0,1.63,0,1.64-1.65,0-.82,0-1.65,0-2.46s-.24-.92-.89-.89c-1.13,0-2.27,0-3.41.08-5.74.19-11.48.49-17.22.53-6,0-11-2.56-15-6.93a8.44,8.44,0,0,1-1.84-8.14,38.14,38.14,0,0,1,3.22-8.27,93.48,93.48,0,0,1,9.72-14.88l.52-.68a6.18,6.18,0,0,1,1.2,8.37,107.88,107.88,0,0,0-5.62,10.08c-.49,1-1,2.05-1.38,3.11a7.5,7.5,0,0,0,5.41,10.27,22.67,22.67,0,0,0,7.53.19,131.58,131.58,0,0,1,14.16-1,23.83,23.83,0,0,1,6.18.81,10.27,10.27,0,0,1,3.55,1.72,3.72,3.72,0,0,1,1.63,3A47.58,47.58,0,0,1,239.3,281.17Zm-1.66-28.48-.75-.05a78.69,78.69,0,0,1-19.63-3.8c-2.44-.8-2.87-1.76-1.85-4.11q3.32-7.64,6.66-15.25c.92-2.08,1.59-2.4,3.83-2a35.92,35.92,0,0,1,8,2.83,106.6,106.6,0,0,1,10.18,5.41c2,1.19,2.31,2,1.59,4.22q-1.51,4.67-3.06,9.34C241.6,252.37,240.83,252.88,237.64,252.69Zm12.9,24.15c-1.51,0-3,0-4.52,0v.1c-1.45,0-2.89,0-4.33,0-.84,0-1.08-.32-1.09-1.09a27.51,27.51,0,0,0-.22-3c-.1-.76,0-1.17.94-1.16q4.05.06,8.1,0a1.21,1.21,0,0,1,1.39.95c.25,1,.5,2.07.74,3.11C251.75,276.6,251.32,276.85,250.54,276.84Zm26.74,7L315.5,282C305.23,292.9,287.63,293.14,277.28,283.81Zm53.65-12.39c-.49,2.24-.57,2.32-2.8,2.39-17,.49-34,1.05-51.06,1.47-7.64.19-15.25.59-22.86,1.3-1.27.12-1.29.11-1.46-1.18a21.92,21.92,0,0,0-1.15-4.22c3.2-.65,6.24-1.18,9.24-1.91,4.84-1.17,9.78-.9,14.68-1,17.53-.5,35.06-.87,52.59-1.29,1.92,0,2.26.22,2.75,2.05A5,5,0,0,1,330.93,271.42Zm-36-25.83c-8.48.19-18.49,7.95-15.89,21.23a7,7,0,0,1-2,.16c-2.77.07-5.55.09-8.32.22-.9,0-1.2-.24-1.31-1.11A27.61,27.61,0,0,1,272,246.64a28.22,28.22,0,0,1,51.17,10.55,29.75,29.75,0,0,1,.39,7.54c0,.6-.13,1.12-.94,1.12-3.52,0-7,0-10.68,0A17,17,0,0,0,295,245.59Zm4.89,8.06a9.21,9.21,0,0,0-10.48,1c-3.5,2.63-4.34,6.1-3,12.06-1.47.06-2.91.09-4.34.2-.79.06-1.12-.22-1.29-1a15.13,15.13,0,1,1,29.64-1c-.16,1-.52,1.42-1.58,1.36-1.31-.09-2.64,0-4.11,0C306,260.85,304.94,256.37,299.84,253.65Zm1.59,8.26c-.2,0-.41-.09-.42-.28-.05-1.07-.85-1.91-.84-3.06a3.41,3.41,0,0,1,1.57,3A.31.31,0,0,1,301.43,261.91Zm.26,1.51a3.24,3.24,0,0,1-1.6,2.81c.08-1.05.73-1.84.87-2.83a.39.39,0,0,1,.4-.32A.29.29,0,0,1,301.69,263.42Zm-3.26-1.51a.86.86,0,0,1-.48-1.1c0-.14.25-.23.39-.35a1.25,1.25,0,0,1,.6,1.12A.34.34,0,0,1,298.43,261.91Zm-.12,2.4a.34.34,0,0,1-.42-.26.75.75,0,0,1,.52-1c.23,0,.45,0,.46.23A.9.9,0,0,1,298.31,264.31Zm.52-6.47a9.79,9.79,0,0,0-2.55-1.1.31.31,0,0,1-.25-.41.41.41,0,0,1,.2-.26,4.63,4.63,0,0,1,3.14,1.32.66.66,0,0,1,0,.2A.34.34,0,0,1,298.83,257.84ZM296.89,260c-.37-.11-.89-.14-.9-.72,0-.19.12-.4.29-.37.47.07,1,.16,1.17.65C297.35,259.83,297.08,260,296.89,260Zm.55,5.19a1.17,1.17,0,0,1-1.16.7.29.29,0,0,1-.28-.39.76.76,0,0,1,1-.58A1.62,1.62,0,0,1,297.44,265.15ZM294,259.9c-.23.05-.55-.06-.55-.35,0-.58.59-.52.94-.7s.43,0,.47.29C294.9,259.81,294.38,259.82,294,259.9Zm.86,5.66c0,.35-.28.36-.54.3s-.78-.15-.75-.63c0-.25.27-.4.6-.36S294.88,265.06,294.85,265.56ZM292.27,263c.55,0,.64.47.72.74,0,.46-.21.66-.48.59-.49-.13-.54-.61-.61-1A.31.31,0,0,1,292.27,263Zm-.4-1.68c.17-.34.1-1,.74-.84.27.05.36.31.26.75-.08.25-.18.73-.75.66A.38.38,0,0,1,291.87,261.35Zm.2-3.56a.36.36,0,0,1-.5-.06c-.13-.15-.2-.34,0-.48a4.92,4.92,0,0,1,3-1.23c.15,0,.29.21.25.43a.48.48,0,0,1-.38.34A7,7,0,0,0,292.07,257.79Zm-2.72,5.29c.74.84.89,1.91,1.53,2.74a.31.31,0,0,1-.13.47c-.17.08-.32.16-.47,0A3.59,3.59,0,0,1,289.35,263.08Zm-.29-1.86a5.44,5.44,0,0,1,1.1-2.57.33.33,0,0,1,.47-.12c.12.09.23.36.17.47a7.37,7.37,0,0,0-.95,2.43c0,.27-.15.51-.44.49C289,261.87,289.07,261.5,289.06,261.22Zm66.64-6.42c-5.22.82-9.91-.29-13.85-4.05a37.92,37.92,0,0,1-4.62-5.5c-2.3-3.24-4.56-6.51-6.9-9.72a36.22,36.22,0,0,0-21.68-14.18,31.79,31.79,0,0,0-22.77,2.76,65.28,65.28,0,0,0-18.05,14.19c-1.34,1.49-1.05,1.28-2.59.41-2.17-1.24-4.33-2.5-6.84-4a11.78,11.78,0,0,0,6.64-6.2c1.62-3.21,3.24-6.41,4.71-9.69a2.65,2.65,0,0,1,1.1-1.47c5.12-2.71,10.15-5.61,15.68-7.46a44.05,44.05,0,0,1,17.85-2.51,35.25,35.25,0,0,1,19.72,8.31A63.25,63.25,0,0,1,336.49,230c.77,1.15,1.55,2.31,2.24,3.51a59.73,59.73,0,0,0,12.16,14.88,22.16,22.16,0,0,1,4.57,5.51C355.6,254.11,355.92,254.32,355.7,254.8Z"/><path class="cls-1" d="M287.07,92.55c-.09.47-.36.59-.7.53-1.37-.26-3.79-2.91-3.93-4.28a.56.56,0,0,1,.29-.62.45.45,0,0,1,.65.17,7.13,7.13,0,0,0,3.43,3.82C287,92.25,287.13,92.4,287.07,92.55Z"/><path class="cls-1" d="M294.84,91.76c.09-.47-.38-1.19.36-1.26s.71.68.76,1.22a4.94,4.94,0,0,1-.91,3.53c-.22.31-.51.61-.91.32s-.22-.55,0-.83A4.16,4.16,0,0,0,294.84,91.76Z"/><path class="cls-1" d="M235.66,48.35l7.75,1.35c1,.17,2,.32,3,.55.59.15.62.56.23,1a1.41,1.41,0,0,1-.31.21c-2.59,1.56-5.15,3.17-7.77,4.67a6.33,6.33,0,0,1-4,.87,3.94,3.94,0,0,1-3.68-4.44C231,49.91,232.72,48.28,235.66,48.35Zm8.64,2.76a11.09,11.09,0,0,0-3.1-.67c-1.91-.37-3.83-.72-5.76-1a2.63,2.63,0,0,0-3.08,1.61,3.5,3.5,0,0,0,.12,3.6,3.16,3.16,0,0,0,3.36,1.18,12,12,0,0,0,5-2.47,1.59,1.59,0,0,0,.55-1c.29-1,.31-1.07,1.21-.48a.43.43,0,0,0,.5,0C243.53,51.73,244.09,51.66,244.3,51.11Z"/><path class="cls-1" d="M161,204.18a27,27,0,0,1,1.74-3.93c.41-.92.88-1.81,1.29-2.73.12-.26.36-.75,0-.79-1.31-.15-1.22-1.49-2-2.16-.51.18-.58.72-.78,1.12-1.08,2.21-2.14,4.43-3.21,6.64-1,2-1,2-3.3,1.68.27-1.21,1.17-2.2,1.4-3.61H152.1a1,1,0,0,0-1,.65c-.22.52-.55,1-.73,1.53a8.44,8.44,0,0,1-5,5.17c1.6-3.77,3.45-7.21,5.13-10.93-1.56-.16-1.75-1.45-2.33-2.69h6c-.07,1.26-1.07,2.2-1.32,3.67,1.39,0,2.74,0,4.09,0a1,1,0,0,0,1.09-.86c.65-2.83,2.63-3.08,5.11-3,4.15.17,8.31.05,12.38.05.35.43.1.7,0,1q-1.93,4.1-3.91,8.19c-.23.49-.41,1-1.17,1C167.33,204.17,164.25,204.18,161,204.18Zm10.8-7.57h-3.66a3.12,3.12,0,0,0-.75,0,.79.79,0,0,0-.64.81c0,.38.46.34.76.34,1.07,0,2.14,0,3.21,0C171.43,197.83,171.82,197.56,171.83,196.61ZM165,201.68c1.32,0,2.63,0,3.93,0,.79,0,1.14-.37,1.09-1.28h-3.93C165.29,200.39,164.94,200.76,165,201.68Z"/><path class="cls-1" d="M280.44,112.18c.13.71.08.94-.19,1s-.62-.09-.72-.39c-.56-1.59-1.09-3.19-1.63-4.78a.54.54,0,0,1,.38-.74.48.48,0,0,1,.59.32C279.45,109.29,280,110.94,280.44,112.18Z"/><path class="cls-1" d="M283.52,103.33a.67.67,0,0,1,.54.48c.5,1.48,1,3,1.48,4.43.12.35,0,.63-.32.75s-.58-.1-.69-.43c-.5-1.48-1-3-1.47-4.44C282.94,103.75,283,103.36,283.52,103.33Z"/><path class="cls-1" d="M292.42,124.74c0,.42-.08.62-.32.75a.41.41,0,0,1-.61-.23c-.41-1.1-.79-2.22-1.15-3.33a.5.5,0,0,1,.32-.6.43.43,0,0,1,.62.22C291.7,122.65,292.08,123.76,292.42,124.74Z"/><path class="cls-1" d="M295.06,109.6a2,2,0,0,1-.34.44.42.42,0,0,1-.64-.18c-.41-1.12-.78-2.25-1.14-3.39a.4.4,0,0,1,.35-.55c.17,0,.45,0,.51.13A20.49,20.49,0,0,1,295.06,109.6Z"/><path class="cls-1" d="M294.12,117.31c-.11.16-.18.36-.31.44a.46.46,0,0,1-.66-.16A13.21,13.21,0,0,1,292,114a.38.38,0,0,1,.33-.41c.18,0,.39-.06.49.14A20.59,20.59,0,0,1,294.12,117.31Z"/><path class="cls-1" d="M286.15,116.16c-.08.38-.08.65-.4.72a.5.5,0,0,1-.6-.32c-.38-1.07-.72-2.14-1.07-3.22a.49.49,0,0,1,.26-.62.44.44,0,0,1,.64.21C285.41,114,285.79,115.16,286.15,116.16Z"/><path class="cls-1" d="M283.52,125.22a.44.44,0,0,1-.47-.22,13.93,13.93,0,0,1-1.13-3.56.36.36,0,0,1,.3-.4c.17,0,.45,0,.5.13a9.88,9.88,0,0,1,1.16,3.7A.33.33,0,0,1,283.52,125.22Z"/><path class="cls-1" d="M265.08,168.16c0,.5-.2.69-.46.72a.51.51,0,0,1-.56-.39l-1.5-4.44a1.86,1.86,0,0,1-.14-.55.55.55,0,0,1,.35-.59.45.45,0,0,1,.6.3C264,164.92,264.56,166.63,265.08,168.16Z"/><path class="cls-1" d="M272.1,160.21a.67.67,0,0,1,.52.5c.53,1.54,1,3.08,1.56,4.62.11.32.14.65-.21.8s-.68-.07-.82-.48c-.5-1.54-1-3.08-1.51-4.63C271.52,160.63,271.6,160.26,272.1,160.21Z"/><path class="cls-1" d="M266.81,161c-.06.22-.07.52-.4.52-.16,0-.42-.11-.46-.23q-.88-2.46-1.7-5c-.08-.24.17-.48.43-.52a.5.5,0,0,1,.57.36c.53,1.54,1,3.09,1.55,4.63A.64.64,0,0,1,266.81,161Z"/><path class="cls-1" d="M270.7,171.49c0,.39-.05.65-.34.73a.45.45,0,0,1-.61-.27q-.75-2.22-1.47-4.44a.46.46,0,0,1,.3-.6.51.51,0,0,1,.64.27C269.75,168.65,270.23,170.13,270.7,171.49Z"/><path class="cls-1" d="M264,122.78a.64.64,0,0,1-.28.77.42.42,0,0,1-.62-.21c-.42-1.1-.8-2.22-1.17-3.34a.51.51,0,0,1,.31-.61c.38-.18.6.07.71.37C263.35,120.81,263.7,121.87,264,122.78Z"/><path class="cls-1" d="M261.92,104.1c-.07-.55,0-.76.32-.84a.5.5,0,0,1,.63.27c.39,1.13.75,2.27,1.08,3.41,0,.12-.14.35-.27.45a.42.42,0,0,1-.64-.17C262.61,106.11,262.23,105,261.92,104.1Z"/><path class="cls-1" d="M284.17,144.44c0,.44-.18.63-.44.68a.52.52,0,0,1-.58-.35c-.48-1.35-.93-2.71-1.39-4.07-.09-.3-.18-.6-.24-.9a.49.49,0,0,1,.29-.6.5.5,0,0,1,.64.27C283.06,141.16,283.63,142.87,284.17,144.44Z"/><path class="cls-1" d="M187.24,223.22a59.37,59.37,0,0,1-1.84,7.71c-.6,1.64-2.36,2.18-4.3,1.62a3.18,3.18,0,0,1-2.47-3.69c.45-2.34,1-4.67,1.59-7a3.13,3.13,0,0,1,3.9-2.37A3.34,3.34,0,0,1,187.24,223.22Zm-1.19-.07a2.2,2.2,0,0,0-1.74-2.36c-1.38-.34-2.47,0-2.8,1.2-.65,2.36-1.18,4.76-1.62,7.17a1.88,1.88,0,0,0,1.59,2.22c1.35.37,2.54,0,2.86-1.09C185,227.87,185.52,225.4,186.05,223.15Z"/><path class="cls-1" d="M195.15,223.57c-.12.61-.27,1.41-.45,2.2-.34,1.53-.76,3-1,4.59-.4,2.29-2.76,3.94-5.73,2.22a2.75,2.75,0,0,1-1.44-2.87,48,48,0,0,1,1.82-7.87c.55-1.61,2.17-2.21,4.08-1.8A3.41,3.41,0,0,1,195.15,223.57Zm-3.72-2.42a2,2,0,0,0-2.2,1.65c-.55,2.19-1,4.4-1.5,6.6a2,2,0,0,0,.86,2.13,2.34,2.34,0,0,0,3.84-1.35c.5-2,.91-4,1.34-6.05A2.24,2.24,0,0,0,191.43,221.15Z"/><path class="cls-1" d="M263.66,137.1c0,.35,0,.56-.31.68a.47.47,0,0,1-.65-.21c-.41-1.12-.79-2.25-1.14-3.4a.46.46,0,0,1,.41-.54.51.51,0,0,1,.6.33C263,135,263.32,136.1,263.66,137.1Z"/><path class="cls-1" d="M235.75,53a1.6,1.6,0,0,1-3.2-.17,1.57,1.57,0,0,1,1.79-1.51A1.54,1.54,0,0,1,235.75,53Zm-1.6.23c.2,0,.37-.15.32-.37a.34.34,0,0,0-.42-.24.35.35,0,0,0-.19.26C233.84,53,233.91,53.18,234.15,53.18Z"/><path class="cls-1" d="M70.72,383q0,10.21-5.52,16.35-5.7,6.3-15.78,6.3-2.47,0-7.5-.2c-3.35-.13-5.86-.19-7.55-.19-.92,0-1.39.59-1.39,1.78q0,2.31.29,6.91c.19,3.08.28,5.38.28,6.92,0,.49-.28.74-.83.74s-1.53-.07-2.76-.2-2.15-.2-2.76-.2-1.29.05-2.3.13-1.77.13-2.26.13c-.73,0-1.09-.44-1.09-1.34q0-4.74.41-14.31c.28-6.37.42-11.16.42-14.34q0-13.57-1-29.13l-.05-.66c0-.63.35-.95,1.13-.95,1.57,0,3.92,0,7.07,0s5.51,0,7.11,0c1.36,0,3.4,0,6.13-.17s4.76-.17,6.13-.17A20.78,20.78,0,0,1,64.68,367,22.36,22.36,0,0,1,70.72,383Zm-10.95.65q0-6.53-3.52-10.43-3.66-4.1-10.09-4.09c-1.34,0-3.71.11-7.13.35-3.92.23-5.93.46-6.05.69s-.3,5.34-.3,15c0,1.22,0,3,.11,5.48s.11,4.26.11,5.47c0,.26.32.47,1,.61q2.4.48,13.26.48,6.09,0,9.48-3.78Q59.77,389.74,59.77,383.61Z"/><path class="cls-1" d="M116.33,400.26a22,22,0,0,1-6,15.52,20.51,20.51,0,0,1-30.21.05,23.08,23.08,0,0,1,0-31,20.71,20.71,0,0,1,30.17,0A21.58,21.58,0,0,1,116.33,400.26Zm-9.17.09a13.28,13.28,0,0,0-3.26-9,10.87,10.87,0,0,0-8.61-4,11,11,0,0,0-8.66,3.91,14.15,14.15,0,0,0,.05,18.13,11.18,11.18,0,0,0,17.22,0A13.5,13.5,0,0,0,107.16,400.35Z"/><path class="cls-1" d="M152.81,382a20.55,20.55,0,0,1-1,4.26c-.67,2.21-1.13,3.31-1.4,3.31l-3.93-1.74a10.63,10.63,0,0,0-4.33-.87,11.52,11.52,0,0,0-8.91,4,13.55,13.55,0,0,0-3.56,9.35,13.12,13.12,0,0,0,3.56,9.18,11.65,11.65,0,0,0,8.91,4,12.48,12.48,0,0,0,5.74-1.44c1.89-1,2.71-1.43,2.48-1.43.38,0,.8,1.21,1.26,3.65a27.55,27.55,0,0,1,.65,4.56c0,.9-1.69,1.79-5.08,2.65a28.24,28.24,0,0,1-6.31,1.09,19.8,19.8,0,0,1-15.13-6.69,23.38,23.38,0,0,1-.13-31.22A19.78,19.78,0,0,1,140.81,378a20.91,20.91,0,0,1,11.13,3.09C152.52,381.44,152.81,381.74,152.81,382Z"/><path class="cls-1" d="M196.2,419.91c0,1.08-.31,1.61-.92,1.61-.89,0-2.26,0-4.08,0s-3.19-.05-4.09-.05c-.72,0-1.09-.47-1.09-1.43q0-2.08.16-6.3c.1-2.82.15-4.93.15-6.35s-.05-3.36-.15-6.07-.16-4.74-.16-6.1q0-7.83-7.39-7.83-2.38,0-6.26,2.39-4.12,2.56-4.13,4.7v25.82c0,.84-.3,1.26-.91,1.26-.9,0-2.25,0-4.05,0s-3.14-.05-4-.05c-.67,0-1-.39-1-1.17v-21q0-5.13-.56-21.82-.09-5.18-.74-15.31a5.08,5.08,0,0,1-.09-.69c0-.5.17-.8.52-.92a24.43,24.43,0,0,1,4.91-.26,16.58,16.58,0,0,0,2.74-.32,16.86,16.86,0,0,1,2.66-.33c.37,0,.56.28.56.83q0,4.08-.32,12.28T167.59,385c0,.67.12,1,.35,1,1.47-1.24,3.39-2.75,5.74-4.52a16.83,16.83,0,0,1,9-2.65q8.16,0,11.26,4.87,2.2,3.57,2.21,11.31c0,.89,0,2.28-.06,4.15s-.07,3.25-.07,4.15q0,2.77.09,8.3C196.17,415.33,196.2,418.09,196.2,419.91Z"/><path class="cls-1" d="M228.76,413.44c0,.63-.06,1.5-.17,2.6-.15,1.37-.24,2.25-.26,2.66a3.68,3.68,0,0,1-.13.95,1.83,1.83,0,0,1-.83.61Q223.8,422,216.15,422,206,422,206,412.74c0-2.46.06-6.17.17-11.11s.18-8.64.18-11.11a1.72,1.72,0,0,0-1.79-1.91c-1.07,0-2.13,0-3.17,0-.61-.15-.91-1.34-.91-3.57a22.6,22.6,0,0,1,.17-2.65,1.44,1.44,0,0,1,1.39-1.26c.73,0,1.44,0,2.13,0,1.33-.06,2-.66,2-1.79s0-2.92-.11-5.3-.11-4.16-.11-5.35c0-2.11.41-3.17,1.22-3.17q.39,0,8.18,1.34c.66.09,1,.41,1,1q0,1.92-.29,5.74t-.28,5.74c0,.84.39,1.26,1.18,1.26h10.43c.49,0,.74.17.74.52a14.7,14.7,0,0,1-.15,1.68,13,13,0,0,0-.16,1.71c0,.44,0,1.11,0,2s0,1.57,0,2-.4.83-1.22.83c-1.16,0-2.91-.08-5.26-.24s-4.1-.24-5.26-.24c-.23,0-.4.83-.52,2.48-.14,2.06-.22,4.94-.22,8.65v6.48a13.46,13.46,0,0,0,.7,5.22c.69,1.5,2.13,2.26,4.3,2.26a19.88,19.88,0,0,0,4-.59,19.82,19.82,0,0,1,3.87-.59C228.59,412.65,228.76,412.91,228.76,413.44Z"/><path class="cls-1" d="M271.8,398.09a4.18,4.18,0,0,1-2.78,4.3q-1.87.71-26.91,2.57a9.75,9.75,0,0,0,4.22,6.52A12.33,12.33,0,0,0,253.8,414a20.18,20.18,0,0,0,12.61-4.43l1.39-1.13a.79.79,0,0,1,.46.09c.07.05.62,1.06,1.63,3a25.8,25.8,0,0,1,1.52,3.15c0,.17-.23.51-.69,1a21.53,21.53,0,0,1-16.39,6.78q-10.1,0-16.09-6t-6-16.06A23.1,23.1,0,0,1,238,384.83a19,19,0,0,1,14.82-6.92,17.75,17.75,0,0,1,13.66,6A20.24,20.24,0,0,1,271.8,398.09Zm-10.35-2.65a8.66,8.66,0,0,0-2.84-6.39,9,9,0,0,0-6.41-2.79,9.65,9.65,0,0,0-7.11,3.22A10.12,10.12,0,0,0,242,396.7c0,.61.52.91,1.56.91a107.65,107.65,0,0,0,15.39-1.31C260.61,396.07,261.45,395.78,261.45,395.44Z"/><path class="cls-1" d="M308.23,382a20.27,20.27,0,0,1-1,4.26c-.67,2.21-1.14,3.31-1.4,3.31l-3.93-1.74a10.63,10.63,0,0,0-4.33-.87,11.52,11.52,0,0,0-8.91,4,13.5,13.5,0,0,0-3.56,9.35,13.07,13.07,0,0,0,3.56,9.18,11.65,11.65,0,0,0,8.91,4,12.51,12.51,0,0,0,5.74-1.44c1.89-1,2.71-1.43,2.48-1.43.38,0,.8,1.21,1.26,3.65a27.55,27.55,0,0,1,.65,4.56c0,.9-1.69,1.79-5.08,2.65a28.33,28.33,0,0,1-6.31,1.09,19.8,19.8,0,0,1-15.13-6.69,23.38,23.38,0,0,1-.13-31.22A19.78,19.78,0,0,1,296.24,378a20.93,20.93,0,0,1,11.13,3.09C307.94,381.44,308.23,381.74,308.23,382Z"/><path class="cls-1" d="M355.93,382.09a4.67,4.67,0,0,1-.13.78A104.54,104.54,0,0,0,354.1,400q0,.43,1.09,19.53l0,.6c0,.84-.35,1.26-1.15,1.26a34.11,34.11,0,0,0-3.61.29,33.24,33.24,0,0,1-3.58.28c-.55,0-1-1-1.27-3s-.56-3-.82-3a11.49,11.49,0,0,0-2.35,1.7,25.37,25.37,0,0,1-4.78,3.17,15.09,15.09,0,0,1-6.87,1.74,18,18,0,0,1-14.22-6.74,22.44,22.44,0,0,1-5.47-15q0-9.64,5.52-15.95,5.78-6.57,15.21-6.57a16.5,16.5,0,0,1,11.61,4.61q.74.87,2.31,2.52a.35.35,0,0,0,.26.13c.17,0,.42-.91.74-2.74S347.48,380,348,380a26.51,26.51,0,0,1,4.39.66C354.74,381.22,355.93,381.68,355.93,382.09Zm-11.09,18.17a13.93,13.93,0,0,0-3.17-9.17A10.53,10.53,0,0,0,333.1,387a10.94,10.94,0,0,0-8.69,4.09,13.72,13.72,0,0,0-3.35,9.21,13.51,13.51,0,0,0,3.35,9.13,11,11,0,0,0,8.69,4.05,10.67,10.67,0,0,0,8.53-4.13A13.75,13.75,0,0,0,344.84,400.26Z"/><path class="cls-1" d="M69,435.84H81.78c7.57,0,12.28,4.29,12.28,10.8v.09c0,7.25-5.82,11-12.93,11H74.72v10.39H69Zm12.28,16.8c4.29,0,7-2.4,7-5.77v-.09c0-3.78-2.73-5.77-7-5.77h-6.6v11.63Z"/><path class="cls-1" d="M107.54,443.78h5.58v5.49c1.52-3.65,4.34-6.14,8.63-5.95v5.91h-.32c-4.89,0-8.31,3.18-8.31,9.64v9.28h-5.58Z"/><path class="cls-1" d="M132.74,456.1V456a13,13,0,0,1,26-.09V456a12.74,12.74,0,0,1-13.06,12.69A12.6,12.6,0,0,1,132.74,456.1Zm20.4,0V456a7.54,7.54,0,0,0-7.48-7.85c-4.48,0-7.34,3.51-7.34,7.76V456a7.51,7.51,0,0,0,7.43,7.8C150.27,463.81,153.14,460.3,153.14,456.1Z"/><path class="cls-1" d="M171.46,456v-.09c0-8.08,5.49-12.65,11.31-12.65a10,10,0,0,1,8.3,4.29v-13.1h5.59v33.69h-5.59v-4.07a9.72,9.72,0,0,1-8.3,4.57C177.05,468.65,171.46,464.08,171.46,456Zm19.71,0v-.09c0-4.71-3.33-7.8-7.06-7.8s-7,2.95-7,7.8V456c0,4.71,3.23,7.8,7,7.8S191.17,460.67,191.17,456Z"/><path class="cls-1" d="M211.71,459.28v-15.5h5.58v13.84c0,3.79,1.89,5.91,5.22,5.91s5.49-2.21,5.49-6V443.78h5.63v24.37H228v-3.79a8.77,8.77,0,0,1-7.62,4.29C214.89,468.65,211.71,465,211.71,459.28Z"/><path class="cls-1" d="M247.57,456.1V456a12.58,12.58,0,0,1,12.69-12.74,12.32,12.32,0,0,1,9.74,4.2l-3.51,3.74c-1.71-1.8-3.51-3-6.28-3-4.06,0-7.06,3.51-7.06,7.76V456c0,4.34,3,7.8,7.3,7.8a8.55,8.55,0,0,0,6.32-3l3.37,3.32a12.78,12.78,0,0,1-22.57-8Z"/><path class="cls-1" d="M281.54,456.05V456c0-7,4.94-12.69,11.91-12.69,7.75,0,11.67,6.09,11.67,13.11,0,.51-.05,1-.09,1.57H287.12a6.8,6.8,0,0,0,7,6.18,8.83,8.83,0,0,0,6.6-2.91l3.27,2.91a12.3,12.3,0,0,1-10,4.57C287,468.7,281.54,463.58,281.54,456.05Zm18-1.8c-.37-3.59-2.49-6.41-6.18-6.41-3.42,0-5.81,2.63-6.32,6.41Z"/><rect class="cls-1" x="24.02" y="447.59" width="22.95" height="4.96" rx="1.49"/><rect class="cls-1" x="24.02" y="457.51" width="22.95" height="4.96" rx="1.49"/><rect class="cls-1" x="330.29" y="447.59" width="22.95" height="4.96" rx="1.49"/><rect class="cls-1" x="330.29" y="457.51" width="22.95" height="4.96" rx="1.49"/><path class="cls-1" d="M162.73,329.9H147.21a4.87,4.87,0,0,1,0-9.74h15.52a4.87,4.87,0,0,1,0,9.74Zm0-1.67h0a3.2,3.2,0,1,0,0-6.4H147.22a3.2,3.2,0,1,0,0,6.4Z"/><path class="cls-1" d="M154.89,347.18a3.41,3.41,0,0,1-3.4-3.41l0-14.53a.92.92,0,0,1,.24-.61.89.89,0,0,1,.59-.26h5.13a.85.85,0,0,1,.84.84v14.57A3.42,3.42,0,0,1,154.89,347.18ZM153.17,330v13.73a1.74,1.74,0,1,0,3.47,0V330Z"/><path class="cls-1" d="M149.13,347.17h0a3.4,3.4,0,0,1-3.4-3.4V329.23a.89.89,0,0,1,.84-.87h5.13a.83.83,0,0,1,.83.83v14.57a3.4,3.4,0,0,1-3.4,3.4ZM147.4,330v13.74a1.72,1.72,0,0,0,1.73,1.73h0a1.72,1.72,0,0,0,1.73-1.73V330Z"/><path class="cls-1" d="M160.79,347.18h0a3.4,3.4,0,0,1-3.39-3.4V329.24a.89.89,0,0,1,.84-.87h5.13a.83.83,0,0,1,.83.83v14.57A3.4,3.4,0,0,1,160.79,347.18ZM159.06,330v13.74a1.73,1.73,0,0,0,1.73,1.73h0a1.73,1.73,0,0,0,1.73-1.73l0-13.73Z"/><path class="cls-1" d="M230,329.9H214.52a4.88,4.88,0,0,1-4.86-4.88,4.87,4.87,0,0,1,4.86-4.86h15.53a4.87,4.87,0,0,1,3.43,8.32A4.82,4.82,0,0,1,230,329.9Zm0-1.67h0a3.2,3.2,0,1,0,0-6.4H214.52a3.2,3.2,0,1,0,0,6.4Z"/><path class="cls-1" d="M222.2,347.18a3.41,3.41,0,0,1-3.4-3.41V329.24a.87.87,0,0,1,.84-.87h5.13a.84.84,0,0,1,.83.84v14.57A3.41,3.41,0,0,1,222.2,347.18ZM220.48,330v13.73a1.73,1.73,0,1,0,3.46,0L224,330Z"/><path class="cls-1" d="M216.44,347.17h0a3.41,3.41,0,0,1-3.4-3.4l0-14.54a.89.89,0,0,1,.84-.87H219a.84.84,0,0,1,.84.83v14.57a3.4,3.4,0,0,1-3.4,3.4ZM214.71,330v13.74a1.74,1.74,0,0,0,1.73,1.73h0a1.73,1.73,0,0,0,1.73-1.73V330Z"/><path class="cls-1" d="M228.1,347.18h0a3.4,3.4,0,0,1-3.39-3.4V329.24a1.1,1.1,0,0,1,0-.18.67.67,0,0,1,.24-.52c.15-.15.41-.1.58-.17h5.12a.84.84,0,0,1,.84.83v14.57A3.4,3.4,0,0,1,228.1,347.18ZM226.36,330v13.74a1.74,1.74,0,0,0,1.74,1.73h0a1.73,1.73,0,0,0,1.73-1.73V330.05Z"/><path class="cls-1" d="M143.18,323.84s0-.07,0-.11h-43v1.67h43Z"/><path class="cls-1" d="M276.74,323.84a.43.43,0,0,1,0-.11h-43v1.67h43Z"/><path class="cls-1" d="M166.77,323.86v1.54h43.72v-1.56s0-.07,0-.11H166.76S166.77,323.81,166.77,323.86Z"/></g></svg>