<svg xmlns="http://www.w3.org/2000/svg" viewBox="0 0 709 367.59"><defs><style>.cls-1{fill:#fff;}</style></defs><title>logos-wn</title><g id="Layer_1" data-name="Layer 1"><path class="cls-1" d="M677.81,127l-7.73-21.18h-46l-11.9,12.92H590.15l-11.91-12.92h-46l6.91,13.14h50.9l6.91,8.82v.51H544l5.58,10.54h-27.2l-2-10.54H544l-4.8-9.3H516.54l-5.93-11.32H461.1l-5.77,11.32h52.46l1.13,8.32H451.8L446,138.58h64.42L512,150.07H438.7l-5.77,11.32h80.6l1.27,9.47H473.66l-4.38-6.41-2.84,6.41H428.66l-5.77,11.32h38.54l-5.75,13h-41l.33-.48v-4.29h4.53l3.32-8.24H415v-4.45l1.31-6.87h12.27l4.31-9.49H418.16l2.2-11.52,18.34.22L446,138.66H422.5l1.88-9.88.52-1.6H452l3.32-8.24h-27.8l10.24-32.08-22.2-25.32H358.34l-4.39,13h58.92l-2.12,10.19H342.94l-4.39,13h69.5L406.33,106h-96.7V86.61l-18-25.08h-53l-4.39,13h59.32l1.49,10.19H229.47l-4.39,13H297l1.2,8.24h-267v13H300.06l1.2,8.24H31.19v13h368l-1.71,8.23H31.19v13h229l-3.47,9.34H31.19v13H251.9l-3.25,8.75H31.19v13H243.82l-3.43,9.24H31.19v13H235.56l-2.81,7.57H31.19v13H186.61l8.19,12.55h55.8l20.93-55.19,0-.15h29.27l-7,9.24h-19v13h9.13l-6.9,9.05,17.75,24.06L316.55,231l.85-3.31H381l-1.88,9.05H389.9l2.89-9.05H441.5L434,238.93H319.09l14.58,21.87H443.05l11.1-21.87h29.17l-3.14-11.24h95.76l-5.12,9.05-87.5,2.19,11.41,20.29h80.21l19.56-31.53h53.3l-4.47-9.76,7.22,14.43-46.12,1.81,18.38,26.63H667.2l1-2.55-36.66-75.43Zm-65.74-8h48.06l-7.06,9.33H605.16v-.51ZM474.13,182.18h42.2l1.76,13H467.93Zm38,23.28h7.32l1.25,9.24H401.48l6.27-9.24Zm-122-21.74-1.82,8.75H326.49l2.25-8.75Zm-80.54-56.54v-8.24h94l-1.71,8.24ZM263,161.39H394.81l-1.94,9.34H264.77Zm6,31.08-1.69-8.75h50l-6.67,8.75Zm51.77,22.23,2.39-9.24h62.51l-1.93,9.24Zm270.45,0-3.66-7.55-4.26,7.55h-50a50,50,0,0,0,2.49-5l-.8-4.23H637.08v-.06l4.64,9.3ZM632,195.19H533l-1.12-5.93h18.7l7-8.23H530.36l-1.74-9.23H565l-5.94-13H526.15l-2-10.54h29.41l-3.94-9.46h95.45l-7.17,9.46H553.57l5.58,10.54h70.78l-9.74,12.87.08.15H565L557.62,181h67.26Z"/><path class="cls-1" d="M200.63,277.89a13.55,13.55,0,0,1,6.6-1.61,12.2,12.2,0,0,1,9,3.5l.71.7,3.49-3.56-.65-.7a14.61,14.61,0,0,0-5.58-3.74,20.07,20.07,0,0,0-7.13-1.24,19,19,0,0,0-9.24,2.25,16.63,16.63,0,0,0-6.46,6.24,18.09,18.09,0,0,0,0,17.83,16.73,16.73,0,0,0,6.46,6.25,18.89,18.89,0,0,0,9.19,2.24,20.88,20.88,0,0,0,6.82-1.11,16.79,16.79,0,0,0,5.68-3.24l.34-.3V287.65h-5.27V299a14.43,14.43,0,0,1-14,.39,12,12,0,0,1-6.22-10.74,12.37,12.37,0,0,1,1.66-6.34A11.84,11.84,0,0,1,200.63,277.89Z"/><path class="cls-1" d="M329.15,290.55a11.48,11.48,0,0,0,2.1-7,11,11,0,0,0-3.85-8.88c-2.51-2.11-6-3.18-10.32-3.18H304v34.25h5.41V295.55h7.67c.71,0,1.42,0,2.1-.09l7.33,10.31h6.19l-8.25-11.58A11.16,11.16,0,0,0,329.15,290.55Zm-19.74-14.08H317c2.94,0,5.19.63,6.69,1.87a7.34,7.34,0,0,1,0,10.42h0c-1.5,1.25-3.75,1.88-6.69,1.88h-7.57Z"/><path class="cls-1" d="M438,273.49a19.63,19.63,0,0,0-18.29,0,16.69,16.69,0,0,0-6.47,6.25,18.19,18.19,0,0,0,0,17.78,16.67,16.67,0,0,0,6.47,6.24,19.67,19.67,0,0,0,18.29,0,16.81,16.81,0,0,0,6.44-6.25,18.09,18.09,0,0,0,0-17.83A16.72,16.72,0,0,0,438,273.49ZM428.91,301a13.13,13.13,0,0,1-6.45-1.6A11.75,11.75,0,0,1,418,295a13.07,13.07,0,0,1,0-12.68,11.61,11.61,0,0,1,4.51-4.42,13.66,13.66,0,0,1,12.87,0,11.53,11.53,0,0,1,4.46,4.41,13.24,13.24,0,0,1,0,12.69,11.55,11.55,0,0,1-4.46,4.42A13,13,0,0,1,428.91,301Z"/><path class="cls-1" d="M551.85,290.86c0,3.47-.76,6.06-2.27,7.71S545.91,301,543,301s-5.09-.8-6.59-2.44-2.27-4.24-2.27-7.71V271.52h-5.41V291c0,4.82,1.27,8.58,3.78,11.15s6,3.9,10.49,3.9,8-1.31,10.46-3.9,3.76-6.33,3.76-11.15V271.52h-5.32Z"/><path class="cls-1" d="M665.33,274.7h0c-2.51-2.11-6-3.18-10.32-3.18H641.93v34.25h5.41V295.59H655c4.33,0,7.81-1.06,10.31-3.16a10.94,10.94,0,0,0,3.86-8.85A11,11,0,0,0,665.33,274.7Zm-18,1.77h7.57c2.94,0,5.19.63,6.69,1.87a6.36,6.36,0,0,1,2.17,5.24,6.25,6.25,0,0,1-2.17,5.15h0c-1.49,1.24-3.74,1.87-6.69,1.87h-7.57Z"/></g></svg>