<svg xmlns="http://www.w3.org/2000/svg" viewBox="0 0 709 367.59"><defs><style>.cls-1{fill:#fff;}</style></defs><title>logos-wn</title><g id="Layer_1" data-name="Layer 1"><path class="cls-1" d="M75.67,122.51H21.44a15.85,15.85,0,0,1,3.93,5.69v82.38a14.81,14.81,0,0,1-2.58,7.76H55.51s-3-4.73-3-8.22V176.24H73.75a27.82,27.82,0,0,0,27.83-27.82h0A25.91,25.91,0,0,0,75.67,122.51Zm-9.6,42.77H52.53v-31.1h6.79A18.92,18.92,0,0,1,78.25,153.1,12.18,12.18,0,0,1,66.07,165.28Z"/><path class="cls-1" d="M153,214.63c-.73-1.13-1.37-2.06-1.44-2.18-1.84-3.2-1.17-7.74-1.17-11.34V169.89s.42-12.23-11.81-17.08-33.31-2.53-33.31-2.53l-2.74,10.44c.1-.36,2.49-.88,2.8-1a35.53,35.53,0,0,1,7.3-1.4c5.56-.45,12.34.63,15.58,5.7,1.7,2.67,2.89,7.49,0,9.85-1.72,1.42-4.84,1.1-6.91,1.23a32.11,32.11,0,0,0-11.63,2.56c-12,5.55-21.07,21.67-12.86,33.79,8.06,11.9,23.59,9.21,33.62,1.63,0,0,.84,5.9,5.27,5.9h19.71C155.78,219,154.22,216.54,153,214.63Zm-23.19-6s-11.61,5.77-14.67-3.43c-2.33-7-1.29-14.91,5.18-19.28a7.85,7.85,0,0,1,5.1-1.45c6.07.62,4.39,8.12,4.39,12.36Z"/><path class="cls-1" d="M283.62,214.63c-.73-1.13-1.36-2.06-1.43-2.18-1.85-3.2-1.18-7.74-1.18-11.34V169.89s.42-12.23-11.81-17.08-33.31-2.53-33.31-2.53l-2.74,10.44c.1-.36,2.49-.88,2.8-1a35.63,35.63,0,0,1,7.31-1.4c5.55-.45,12.33.63,15.57,5.7,1.7,2.67,2.89,7.49,0,9.85-1.72,1.42-4.84,1.1-6.91,1.23a32,32,0,0,0-11.62,2.56c-12,5.55-21.08,21.67-12.87,33.79,8.07,11.9,23.59,9.21,33.62,1.63,0,0,.84,5.9,5.27,5.9h19.71C286.43,219,284.88,216.54,283.62,214.63Zm-23.19-6s-11.61,5.77-14.67-3.43c-2.33-7-1.29-14.91,5.18-19.28a7.87,7.87,0,0,1,5.1-1.45c6.07.62,4.39,8.12,4.39,12.36Z"/><path class="cls-1" d="M217.54,156.09c-6.22-8.08-17.28-14-34.24.37v-1a6.18,6.18,0,0,0-4.57-4.45c-3.75-.8-20.33,0-20.33,0s1.7.56,1.7,5.57v81.88c-.44,1.78-1.38,5-2.84,6.6h29c-1.67-1.83-2.67-5.81-3-7.3V217a33.64,33.64,0,0,0,14.1,1.08c10.51-1.32,19.25-7.85,24.34-23S223.85,164.28,217.54,156.09Zm-19.81,48.57c-4.84,6.64-11,5.45-14.43,2.37V167.71c.86-2.39,2.85-6.64,6.46-7.47,5.09-1.17,11.51,0,13.06,12.11S202.82,197.69,197.73,204.66Z"/><path class="cls-1" d="M331.66,151.17v10.32s-6-3.4-15.07-1.29c-2.61.6-6.94,1.93-7.06,5.26-.11,2.76,2.54,4.14,4.63,5.25,2.9,1.55,5.84,3,8.79,4.48,4.29,2.13,8.6,4.76,11.47,8.73a22.3,22.3,0,0,1,3.64,16,25.29,25.29,0,0,1-1.45,5.69c-3.87,10.18-11.33,14.29-25.18,13.63s-23.15-4.87-23.83-5.28v-13.1H289s8.08,8.55,17.58,10.25,18.19-9.17,12-14.33-18.47-9.09-25.59-17-1.34-19.68,8.69-25.66C312.94,147.36,331.66,151.17,331.66,151.17Z"/><path class="cls-1" d="M404.07,200.84s9-8.54,8.75-25.3h-8.75s-1.79,16.55-4.64,15.91l-19.92-30.78s-4.32-7.9,2.32-12,19.29,2.42,19.29,2.42V140.75c0-1.37-11.77-1.84-13-1.83-10.74,0-27,4.91-27.25,18.12-.08,4.55,2.24,8.79,5,12.28,0,0-19.93,5.69-22.88,20.45s8.22,28.38,23.72,29.95S391,213.17,391,213.17l4.85,5h19.29Zm-40.24,2.55c-10.61-8.7-4.6-22.83,6-24l17.82,25.07S374.44,212.1,363.83,203.39Z"/><path class="cls-1" d="M477.22,166.72s16.13-3.91,20.37-14.34,1.14-21.22-13.2-26.06-63.9-3.59-63.9-3.59a20.23,20.23,0,0,1,2.65,9.13v79.66s-.49,6.07-3.1,7.49h48.58c2.6,0,5.21.06,7.82,0a21.72,21.72,0,0,0,9.1-1.86,35.86,35.86,0,0,0,8.12-5.53,27.6,27.6,0,0,0,9.3-17.87C504.92,174.38,477.22,166.72,477.22,166.72Zm-26.38-29.5c8.75-7.12,20.84.65,21.82,7.68s-1.79,11.69-8.5,15.12-13.32-.41-13.32-.41Zm26.24,56.23c-.9,12-10.71,13.49-10.71,13.49h-9.15a6.45,6.45,0,0,1-6.38-4V178.08c0-4.57,11.53-3.51,16.43-2.69S478,181.43,477.08,193.45Z"/><path class="cls-1" d="M548.11,206.17c-10.29-.46-15.84-4.62-16.88-15L573,176.26C569.84,159.37,558.26,146,540.73,146c-19.82,0-35.89,16.34-35.89,36.49S520.91,219,540.73,219a35.57,35.57,0,0,0,27.38-12.91v-8.36H568S558.4,206.64,548.11,206.17Zm-20-36.51c0-7.92,5.42-14.34,13.34-14.34h0c3.23,0,6.46,2,6.46,5.22l1,12.48-20.8,7Z"/><path class="cls-1" d="M618.53,206.17c-10.29-.46-15.84-4.62-16.88-15l41.75-14.89C640.26,159.37,628.68,146,611.15,146c-19.82,0-35.89,16.34-35.89,36.49S591.33,219,611.15,219a35.57,35.57,0,0,0,27.38-12.91v-8.36h-.12S628.82,206.64,618.53,206.17Zm-20-36.51c0-7.92,5.42-14.34,13.34-14.34h0c3.23,0,6.46,2,6.46,5.22l1,12.48-20.8,7Z"/><path class="cls-1" d="M669.62,219H647.05v-54.6s.06-8.18-3.61-11.85h17.27s3.38,2,4.28,10.85c0,0,14.68-13.33,22.57-13.56v15s-20.31,5-20.76,15.23S665.9,214.16,669.62,219Z"/></g></svg>