<svg id="Layer_2" data-name="Layer 2" xmlns="http://www.w3.org/2000/svg" viewBox="0 0 709 367.59"><defs><style>.cls-1{fill:#fff;}</style></defs><title>logos-wn</title><path class="cls-1" d="M556.66,98.43s-94.15,1.06-95.34,0l66.46,160.83h93.76Z"/><path class="cls-1" d="M458.2,191.92c6.87-12.83,15.22-36.11,4-57.75-16.48-31.92-42.71-34.64-42.71-34.64H251.58l66.53,159.73h88.62l-24.87-61.14h16.28l24.94,61.14H512S499.43,232,492.44,211.31C486.53,193.8,464.78,192,458.2,191.92Zm-81.59-6.72-25.19-61.92A7.51,7.51,0,0,1,358.37,113h0a7.5,7.5,0,0,1,6.94,4.67l27.56,67.58Z"/><path class="cls-1" d="M153.21,99.53,90.46,259.26h78.43l5.32-10.83h38.7l3.76,10.83h86.64L237.71,99.53Zm28.18,134.26,15.49-31.58,11,31.58Z"/><path class="cls-1" d="M590.8,59.56C527.63,27,443.71,9,354.5,9S181.38,27,118.2,59.56c-63.91,33-99.11,77.1-99.11,124.23,0,42.49,28.62,82.53,81.08,114.18v.22h.36Q109,303.25,118.2,308c60.74,31.35,140.67,49.15,226,50.47v.09c1.49,0,3,0,4.47,0,1.93,0,3.86,0,5.8,0s4.17,0,6.26,0c1.61,0,3.21,0,4.82,0v-.1c85.06-1.43,164.67-19.21,225.22-50.46,33.62-17.35,59.28-37.78,76.06-60.11h.37v-.48c14.89-20,22.68-41.48,22.68-63.65C689.91,136.66,654.71,92.54,590.8,59.56Zm92,120.29h-79.2a124.79,124.79,0,0,0-12.79-50.75H665C675.79,145.07,682,162.12,682.81,179.85ZM582.9,129.1a118.33,118.33,0,0,1,13.71,50.75H516.35a164.35,164.35,0,0,0-9.54-50.75Zm-78.77-7a185.59,185.59,0,0,0-27.85-46.81h60.36c17.71,13.86,32.11,29.64,42.36,46.81ZM496,247.92a182.59,182.59,0,0,1-26.91,43.27H358V247.92Zm-138-7V186.85H509.4a157.13,157.13,0,0,1-10.54,54.07Zm145.7,7h73.8c-9.85,15.77-23.22,30.34-39.46,43.27H478.23A185.13,185.13,0,0,0,503.7,247.92Zm2.71-7a164.7,164.7,0,0,0,10-54.07h80.23a118.8,118.8,0,0,1-15,54.07ZM599.78,72.34c25.35,14.55,45.84,31.36,60.13,49.76H587.16c-9.36-16.8-22.59-32.56-39.38-46.81h52Zm-7.27-4H539.08q-5.73-4.37-11.92-8.53c-24.28-16.25-52.54-28.85-83.27-37.45C501.35,30.63,552.45,46.76,592.51,68.29Zm-65.32,0H470.34a228.31,228.31,0,0,0-30.22-28.35A254.68,254.68,0,0,0,415.2,22.76C458.45,31.19,496.92,47.12,527.19,68.29ZM358,16.25c12.41.44,24.59,1.49,36.47,3.09,25.69,13.07,48.15,29.69,66.25,49H358Zm-7,0v52H249.09c18.1-19.26,40.56-35.88,66.25-48.95C327,17.77,338.87,16.74,351,16.28ZM269.69,39.94a228.31,228.31,0,0,0-30.22,28.35H182.62c30.27-21.17,68.74-37.1,112-45.53A253.48,253.48,0,0,0,269.69,39.94Zm-141.49,201a118.93,118.93,0,0,1-15-54.07h80.24a164.69,164.69,0,0,0,10,54.07Zm77.91,7a185.13,185.13,0,0,0,25.47,43.27H171.76c-16.24-12.93-29.6-27.5-39.46-43.27ZM113.2,179.85a118.33,118.33,0,0,1,13.71-50.75H203a164.66,164.66,0,0,0-9.55,50.75Zm17.61-57.75c10.25-17.17,24.65-32.95,42.36-46.81h60.35a185.55,185.55,0,0,0-27.84,46.81Zm135.87-100c-31,8.59-59.55,21.27-84,37.66-4.14,2.77-8.1,5.62-11.92,8.53H116.49C156.91,46.56,208.58,30.34,266.68,22.1ZM104.2,75.29H162c-16.79,14.25-30,30-39.37,46.81H49.09C62.42,104.93,81.16,89.15,104.2,75.29ZM44,129.1h75a124.79,124.79,0,0,0-12.79,50.75h-80C27,162.12,33.21,145.07,44,129.1ZM26.16,186.85h80a125.13,125.13,0,0,0,14,54.07H45.7C33.66,224,26.83,205.8,26.16,186.85ZM51,247.92h73c9,15.45,21.32,30,36.69,43.27H102.37C81.24,278.26,63.85,263.69,51,247.92Zm63.43,50.27h54.8q6.39,4.95,13.38,9.64c24.43,16.35,52.88,29,83.83,37.63C207.49,337.07,155.14,320.45,114.47,298.19Zm66.6,0H237.3A226.74,226.74,0,0,0,269.69,329a254.21,254.21,0,0,0,21.66,15.17C248.68,335.44,210.81,319.37,181.07,298.19ZM351,351.3a372.64,372.64,0,0,1-39.28-3.57c-25.26-13.34-47.27-30.15-64.91-49.54H351Zm0-60.11H240.72a182.87,182.87,0,0,1-26.9-43.27H351Zm0-50.27H211a156.89,156.89,0,0,1-10.54-54.07H351Zm0-61.07h-4.91l-2.94.44-.1-.44H200.46a157,157,0,0,1,10.08-50.75H334.72l.81-7H213.36A183,183,0,0,1,242.8,75.29H351v29.26h7V75.29H467a183,183,0,0,1,29.44,46.81H382.81l4.48,7h112a156.77,156.77,0,0,1,10.09,50.75H358v-1.8l-7,1.06Zm7,171.49V298.19H463c-17.64,19.39-39.65,36.2-64.91,49.54A371.8,371.8,0,0,1,358,351.34ZM440.12,329a226.65,226.65,0,0,0,32.38-30.82h56.24c-29.75,21.18-67.61,37.25-110.28,46A254.21,254.21,0,0,0,440.12,329Zm4,16.24c30.66-8.6,58.84-21.2,83.08-37.42q7-4.68,13.38-9.64h54C554.22,320.25,502.44,336.78,444.08,345.25ZM605.31,292v-.8H549.09c15.37-13.26,27.68-27.82,36.69-43.27H658C644.88,264,627,278.86,605.31,292Zm58-51.07H589.6a125.27,125.27,0,0,0,14-54.07h79.21C682.17,205.8,675.34,224,663.3,240.92Z"/></svg>