<svg xmlns="http://www.w3.org/2000/svg" viewBox="0 0 183 158"><defs><style>.cls-1{fill:#5a6e7f;}.cls-2{fill:#15bae0;}.cls-3{fill:#fff;}</style></defs><title>iconos</title><g id="Layer_1" data-name="Layer 1"><path class="cls-1" d="M86.61,121.2h9.12a7,7,0,0,0,6.42-4.18h-22A7,7,0,0,0,86.61,121.2Z"/><rect class="cls-2" x="79.57" y="111.3" width="23.2" height="2.41"/><path class="cls-2" d="M80.19,117h22a7,7,0,0,0,.62-2.86v-.44H79.57v.44A7,7,0,0,0,80.19,117Z"/><path class="cls-1" d="M87.56,92.74h-2a.43.43,0,0,0-.42.45v6.53H81.4a1.83,1.83,0,0,0-1.83,1.83v9.76h23.2v-9.76a1.83,1.83,0,0,0-1.83-1.83H99.81V93.18a.44.44,0,0,0-.43-.45h-2a.43.43,0,0,0-.42.45v6.53H88V93.18A.43.43,0,0,0,87.56,92.74Z"/><path class="cls-1" d="M91.16,143.9h0c.8,0,1.45-.37,1.45-.82V124.45h.42c1.61,0,2.92-.38,2.92-.85v-1.53c0-.12-.34-.22-.76-.22H87.13c-.42,0-.76.1-.76.22v1.53c0,.47,1.31.85,2.92.85h.42v18.62C89.71,143.53,90.36,143.9,91.16,143.9Z"/><path class="cls-1" d="M123.7,90.05h0a26.53,26.53,0,0,0,2.84-52.9l-1.64,3.5.18.27,5.57-.19h0L119.67,51.79a.19.19,0,0,1-.3-.23L124,43.33l-.17-.29-3.76.1a.19.19,0,0,1-.15-.32l4.55-5.33v0l.36-.43c-.37,0-.72-.06-1.09-.06a26.53,26.53,0,0,0-7.56,1.1,31,31,0,0,0-61.11,7,31.46,31.46,0,0,0,.2,3.46c-.58,0-1.17-.08-1.76-.08a20.81,20.81,0,0,0-.16,41.61H123.7Z"/><path class="cls-3" d="M119.67,51.79l11.05-11.06h0l-5.57.19-.18-.27,1.64-3.5,2.21-4.7,0,.05,0-.05-3.93,4.6-.36.43v0l-4.55,5.33a.19.19,0,0,0,.15.32l3.76-.1.17.29-4.65,8.22A.19.19,0,0,0,119.67,51.79Z"/></g></svg>