<svg xmlns="http://www.w3.org/2000/svg" viewBox="0 0 183 158"><defs><style>.cls-1{fill:#5a6e7f;}.cls-2{fill:#15bae0;}</style></defs><title>iconos</title><g id="Layer_1" data-name="Layer 1"><path class="cls-1" d="M110.31,53.26a20.09,20.09,0,1,0-8.43-11.43L90,50.24,71.25,63.55a20,20,0,1,0,3.18,33.15L90,107.77l11.85,8.41a19.7,19.7,0,0,0-.75,5.34,20,20,0,1,0,9.17-16.77l-17-12L81.6,84.38a20.16,20.16,0,0,0,.28-3.19,19.89,19.89,0,0,0-1.24-6.87l12.7-9ZM120.68,25a11.26,11.26,0,1,1-11.26,11.25A11.26,11.26,0,0,1,120.68,25Zm-59,68.06A11.26,11.26,0,1,1,72.89,81.84,11.26,11.26,0,0,1,61.64,93.09Zm59,17.32a11.26,11.26,0,1,1-11.26,11.25A11.26,11.26,0,0,1,120.68,110.41Z"/><path class="cls-2" d="M109.42,121.67a11.26,11.26,0,1,0,11.26-11.25A11.26,11.26,0,0,0,109.42,121.67Z"/><circle class="cls-2" cx="61.64" cy="81.84" r="11.26"/><path class="cls-2" d="M109.42,36.29A11.26,11.26,0,1,0,120.68,25,11.26,11.26,0,0,0,109.42,36.29Z"/></g></svg>