<svg xmlns="http://www.w3.org/2000/svg" viewBox="0 0 183 158"><defs><style>.cls-1{fill:#5a6e7f;stroke:#5a6e7f;stroke-linecap:round;stroke-linejoin:round;stroke-width:0.5px;}</style></defs><title>iconos</title><g id="Layer_1" data-name="Layer 1"><path class="cls-1" d="M149.48,119a18.2,18.2,0,0,0-17.84-16.45,17.9,17.9,0,0,0-14.54,7.63,11.46,11.46,0,0,0-2-.17,12,12,0,0,0-11.36,8.55,14.42,14.42,0,0,0-7,12.34,14.11,14.11,0,0,0,13.93,14.26h24.17l.38,0,.42,0h9.67a13.3,13.3,0,0,0,13.12-13.43A13.43,13.43,0,0,0,149.48,119Zm-4.15,21.69H135.19l-24.5,0a9.63,9.63,0,0,1-9.44-9.78,9.88,9.88,0,0,1,5.42-8.83l1-.48.23-1.07a7.53,7.53,0,0,1,7.24-6,7.2,7.2,0,0,1,2.29.38l1.74.59.92-1.59A13.28,13.28,0,0,1,131.64,107a13.74,13.74,0,0,1,13.45,13.73l0,1.82,1.79.35a9,9,0,0,1-1.57,17.74Z"/><path class="cls-1" d="M47.76,26.28A10.09,10.09,0,1,0,57.85,36.38,10.11,10.11,0,0,0,47.76,26.28Zm0,15.7a5.61,5.61,0,1,1,5.61-5.61A5.61,5.61,0,0,1,47.76,42Z"/><circle class="cls-1" cx="136.36" cy="33.01" r="2.24"/><circle class="cls-1" cx="127.39" cy="33.01" r="2.24"/><circle class="cls-1" cx="140.85" cy="39.74" r="2.24"/><circle class="cls-1" cx="131.88" cy="39.74" r="2.24"/><circle class="cls-1" cx="118.42" cy="33.01" r="2.24"/><circle class="cls-1" cx="122.9" cy="39.74" r="2.24"/><circle class="cls-1" cx="109.45" cy="33.01" r="2.24"/><circle class="cls-1" cx="113.93" cy="39.74" r="2.24"/><circle class="cls-1" cx="100.47" cy="33.01" r="2.24"/><circle class="cls-1" cx="104.96" cy="39.74" r="2.24"/><path class="cls-1" d="M158.8,49.59V25.4a12.58,12.58,0,0,0-12.58-12.58H36.78A12.58,12.58,0,0,0,24.2,25.4V49.59a10.17,10.17,0,0,0,2.44,6.61,2.28,2.28,0,0,1,0,3,10.17,10.17,0,0,0-2.44,6.61V92.21a10.17,10.17,0,0,0,2.44,6.61,2.28,2.28,0,0,1,0,3,10.17,10.17,0,0,0-2.44,6.61v24.19a12.58,12.58,0,0,0,12.58,12.58h48A2.24,2.24,0,0,0,87,142.93h0a2.24,2.24,0,0,0-2.24-2.24h-48a8.09,8.09,0,0,1-8.09-8.09V110.64a8.09,8.09,0,0,1,8.09-8.09H107.2a2.24,2.24,0,0,0,2.24-2.24h0a2.24,2.24,0,0,0-2.24-2.24H36.78A8.09,8.09,0,0,1,28.69,90V68a8.09,8.09,0,0,1,8.09-8.09H146.21A8.09,8.09,0,0,1,154.31,68v27.8a2.24,2.24,0,0,0,2.24,2.24h0a2.24,2.24,0,0,0,2.24-2.24v-30a10.17,10.17,0,0,0-2.44-6.61,2.28,2.28,0,0,1,0-3A10.17,10.17,0,0,0,158.8,49.59Zm-122,5.85a8.09,8.09,0,0,1-8.09-8.09V25.4a8.09,8.09,0,0,1,8.09-8.09H146.21a8.1,8.1,0,0,1,8.1,8.1V47.35a8.09,8.09,0,0,1-8.09,8.09Z"/><path class="cls-1" d="M37.66,79A10.09,10.09,0,1,0,47.76,68.9,10.11,10.11,0,0,0,37.66,79Zm15.7,0a5.61,5.61,0,1,1-5.61-5.61A5.61,5.61,0,0,1,53.37,79Z"/><circle class="cls-1" cx="136.36" cy="75.63" r="2.24"/><circle class="cls-1" cx="127.39" cy="75.63" r="2.24"/><circle class="cls-1" cx="140.85" cy="82.36" r="2.24"/><circle class="cls-1" cx="131.88" cy="82.36" r="2.24"/><circle class="cls-1" cx="118.42" cy="75.63" r="2.24"/><circle class="cls-1" cx="122.9" cy="82.36" r="2.24"/><circle class="cls-1" cx="109.45" cy="75.63" r="2.24"/><circle class="cls-1" cx="113.93" cy="82.36" r="2.24"/><circle class="cls-1" cx="100.47" cy="75.63" r="2.24"/><circle class="cls-1" cx="104.96" cy="82.36" r="2.24"/><path class="cls-1" d="M37.66,121.62a10.09,10.09,0,1,0,10.09-10.09A10.11,10.11,0,0,0,37.66,121.62Zm15.7,0A5.61,5.61,0,1,1,47.76,116,5.61,5.61,0,0,1,53.37,121.62Z"/></g></svg>