<svg xmlns="http://www.w3.org/2000/svg" viewBox="0 0 454 345"><defs><style>.cls-1{fill:#15bae0;opacity:0.17;}</style></defs><title>iconos</title><g id="Layer_1" data-name="Layer 1"><path class="cls-1" d="M434.46,316.25h-29.8L240.82,63.77,267,24.37a9.8,9.8,0,1,0-16.32-10.85l-21.5,32.34L208.27,13.61a9.8,9.8,0,1,0-16.44,10.67l25.54,39.36-168,252.61H19.54a9.8,9.8,0,0,0,0,19.6H434.46a9.8,9.8,0,0,0,0-19.6ZM229,81.56l152.3,234.7H317.87L240.75,206.08a9.8,9.8,0,0,0-16.06,0L147.57,316.25H72.95Zm64.94,234.7H171.5l61.22-87.46Z"/></g></svg>