<svg xmlns="http://www.w3.org/2000/svg" viewBox="0 0 183 158"><defs><style>.cls-1{fill:#5a6e7f;}.cls-2{fill:#15bae0;}</style></defs><title>iconos</title><g id="Layer_1" data-name="Layer 1"><path class="cls-1" d="M55.2,118.32A56.51,56.51,0,0,0,86,134.56a72.68,72.68,0,0,1-18-23.65A68.25,68.25,0,0,0,55.2,118.32Z"/><path class="cls-1" d="M40.25,89.76a55.75,55.75,0,0,0,12.08,25.37A72.53,72.53,0,0,1,66.38,107,73.92,73.92,0,0,1,61.1,83.14H47.95A8.52,8.52,0,0,1,40.25,89.76Z"/><path class="cls-1" d="M93.41,100.79V83.12h-28a69.57,69.57,0,0,0,5,22.26A74.92,74.92,0,0,1,93.41,100.79Z"/><path class="cls-1" d="M93.41,135v-30a70.34,70.34,0,0,0-21.35,4.25A69.8,69.8,0,0,0,93.41,135Z"/><path class="cls-1" d="M61,47.09a8.3,8.3,0,0,1,8.33-2.38A73.8,73.8,0,0,1,86,23.44,56.31,56.31,0,0,0,53.24,41.79,69.1,69.1,0,0,0,61,47.09Z"/><path class="cls-1" d="M67.42,61.46a70.75,70.75,0,0,0-2.19,17.41l28.18,0V61a73.76,73.76,0,0,1-19.12-3.33A8.53,8.53,0,0,1,67.42,61.46Z"/><path class="cls-1" d="M50.55,45.09a55.71,55.71,0,0,0-11,27.66h.07a8.51,8.51,0,0,1,8.15,6.13H61a75.07,75.07,0,0,1,2.3-18.37,8.33,8.33,0,0,1-4.33-9.67A73.61,73.61,0,0,1,50.55,45.09Z"/><path class="cls-1" d="M120.76,115.45c-.25,0-.48-.05-.72-.07a72.82,72.82,0,0,1-15.78,19.31,56.34,56.34,0,0,0,32.36-17.11,67.74,67.74,0,0,0-9.18-5.41A8.49,8.49,0,0,1,120.76,115.45Z"/><path class="cls-1" d="M139.43,114.35a55.83,55.83,0,0,0,12.33-31.26H129.35a74.57,74.57,0,0,1-3,17.4,8.14,8.14,0,0,1,2.81,7.76A72.53,72.53,0,0,1,139.43,114.35Z"/><path class="cls-1" d="M125.58,55.07a74.72,74.72,0,0,1,3.9,23.76h22.44A55.84,55.84,0,0,0,141.2,46,73.84,73.84,0,0,1,125.58,55.07Z"/><path class="cls-1" d="M93.41,56.73V23A69.71,69.71,0,0,0,73.06,46.77a8.49,8.49,0,0,1,2.67,6.18c0,.23-.05.45-.07.68A69.47,69.47,0,0,0,93.41,56.73Z"/><path class="cls-1" d="M97.68,56.78a69.44,69.44,0,0,0,22.46-4.14A69.29,69.29,0,0,0,97.68,23.46Z"/><path class="cls-1" d="M124.1,51.06a69.62,69.62,0,0,0,14.46-8.46,56.09,56.09,0,0,0-34.31-19.29A73.41,73.41,0,0,1,124.1,51.06Z"/><path class="cls-1" d="M97.68,78.85l27.54,0a70.49,70.49,0,0,0-3.62-22.19,73.6,73.6,0,0,1-23.92,4.41Z"/><path class="cls-1" d="M97.68,105v29.53a70.17,70.17,0,0,0,18.24-20.6,8.52,8.52,0,0,1-3.7-7s0-.09,0-.13A70.94,70.94,0,0,0,97.68,105Z"/><path class="cls-1" d="M113.38,102.67a8.49,8.49,0,0,1,9.08-4.13,70.43,70.43,0,0,0,2.62-15.44l-27.4,0v17.63A75.11,75.11,0,0,1,113.38,102.67Z"/><path class="cls-2" d="M67.18,44.41a8.54,8.54,0,0,0,0,17.08l.24,0a8.41,8.41,0,0,0,8.24-7.84c0-.23.07-.44.07-.68a8.68,8.68,0,0,0-8.54-8.54Z"/><path class="cls-2" d="M39.62,72.74h-.07a8.54,8.54,0,0,0,.07,17.08c.22,0,.42,0,.63-.06a8.55,8.55,0,0,0,7.91-8.48,8.42,8.42,0,0,0-.39-2.41A8.51,8.51,0,0,0,39.62,72.74Z"/><path class="cls-2" d="M122.46,98.54a8.59,8.59,0,0,0-10.24,8.24s0,.09,0,.13a8.46,8.46,0,0,0,7.82,8.47c.24,0,.47.07.72.07a8.55,8.55,0,0,0,1.71-16.91Z"/></g></svg>