<svg xmlns="http://www.w3.org/2000/svg" viewBox="0 0 183 158"><defs><style>.cls-1{fill:#5a6e7f;}.cls-2{fill:#fff;}.cls-3{fill:#15bae0;}</style></defs><title>iconos</title><g id="Layer_1" data-name="Layer 1"><path class="cls-1" d="M33.86,29.76a3.43,3.43,0,0,0-3.42,3.43v70.92a3.42,3.42,0,0,0,3.42,3.43H149.13a3.43,3.43,0,0,0,3.43-3.43V33.19a3.43,3.43,0,0,0-3.43-3.43ZM144.49,99.87H38.28V37.21H144.49Z"/><path class="cls-1" d="M151.34,109H31.66a3.16,3.16,0,0,0-2.17.89L17.43,121.25c-2.5,2.34-1.06,7,2.17,7H163.4c3.22,0,4.66-4.64,2.17-7l-12.06-11.34A3.14,3.14,0,0,0,151.34,109Z"/><path class="cls-2" d="M144.49,99.87V37.21H38.28V99.87ZM90.36,77.35h-23V74.49h23ZM116.48,93.1H91.81V90.93h24.68Zm22.71-3.72H91.81V87.21h47.39Zm0-3.72H91.81V83.49h47.39Zm0-3.72H91.81V79.77h47.39ZM91.81,77.35V74.49h23v2.86Zm47.42,0h-23V74.49h23ZM42.95,42.53h96.28V71.92H42.95Zm0,32h23v2.86h-23Zm0,5.45H90.34V94.37H42.95Z"/><rect class="cls-3" x="42.95" y="42.53" width="96.28" height="29.39"/><rect class="cls-3" x="42.95" y="74.49" width="22.99" height="2.86"/><rect class="cls-3" x="42.95" y="79.94" width="47.39" height="14.43"/><rect class="cls-3" x="67.38" y="74.49" width="22.99" height="2.86"/><rect class="cls-3" x="91.81" y="74.49" width="22.99" height="2.86"/><rect class="cls-3" x="91.81" y="79.77" width="47.39" height="2.17"/><rect class="cls-3" x="91.81" y="83.49" width="47.39" height="2.16"/><rect class="cls-3" x="91.81" y="87.21" width="47.39" height="2.17"/><rect class="cls-3" x="91.81" y="90.93" width="24.68" height="2.17"/><rect class="cls-3" x="116.23" y="74.49" width="22.99" height="2.86"/></g></svg>