<svg xmlns="http://www.w3.org/2000/svg" viewBox="0 0 611 201"><defs><style>.cls-1{fill:none;stroke:#fff;stroke-miterlimit:10;stroke-width:2px;}.cls-2{fill:#15bae0;}.cls-3{fill:#fff;}</style></defs><title>iconos</title><g id="Layer_1" data-name="Layer 1"><rect class="cls-1" x="175.9" y="64.27" width="427.59" height="83.68"/><rect class="cls-2" x="7.52" y="4.06" width="168.38" height="192.87"/><path class="cls-3" d="M77.94,133.69a14.44,14.44,0,0,1-5.32,4.12,16.44,16.44,0,0,1-6.86,1.42,19,19,0,0,1-9.09-2.16,39.2,39.2,0,0,1-9.28-7.64,25.36,25.36,0,0,1-10.92-3.93A22.11,22.11,0,0,1,29,117.35a23,23,0,0,1-2.67-11.05,22.79,22.79,0,0,1,3.19-12A22.47,22.47,0,0,1,38.34,86,26.33,26.33,0,0,1,51,83a26.14,26.14,0,0,1,12.63,3,22.57,22.57,0,0,1,12.05,20.3,22.47,22.47,0,0,1-4.41,13.79,22.83,22.83,0,0,1-11.7,8.25,11.47,11.47,0,0,0,3.13,2.42,7.32,7.32,0,0,0,3.25.74,9.81,9.81,0,0,0,7.35-3.35ZM38.73,113.78a13.18,13.18,0,0,0,5.06,5.12,15.1,15.1,0,0,0,14.44,0,13.19,13.19,0,0,0,5.06-5.12,16.13,16.13,0,0,0,0-15,13.19,13.19,0,0,0-5.06-5.12,15.1,15.1,0,0,0-14.44,0,13.18,13.18,0,0,0-5.06,5.12,16.13,16.13,0,0,0,0,15Z"/><path class="cls-3" d="M117.77,94.18v34.67h-9.54v-4.12a13.33,13.33,0,0,1-4.77,3.45,15,15,0,0,1-6,1.19q-6.83,0-10.83-3.93t-4-11.67V94.18H92.7v18.11q0,8.38,7,8.38a7.55,7.55,0,0,0,5.8-2.35q2.19-2.35,2.19-7V94.18Z"/><path class="cls-3" d="M160.89,114.36H134.66a8.16,8.16,0,0,0,3.35,5.09,11.1,11.1,0,0,0,6.57,1.87,13.32,13.32,0,0,0,4.8-.81,11.64,11.64,0,0,0,3.9-2.55l5.35,5.8q-4.9,5.61-14.31,5.61a22.63,22.63,0,0,1-10.38-2.29,16.76,16.76,0,0,1-7-6.35,17.48,17.48,0,0,1-2.45-9.22,17.72,17.72,0,0,1,2.42-9.18A16.93,16.93,0,0,1,133.59,96a20.55,20.55,0,0,1,18.66-.1,16,16,0,0,1,6.48,6.28,18.75,18.75,0,0,1,2.35,9.51Q161.08,111.84,160.89,114.36Zm-23.52-11.15a8.23,8.23,0,0,0-2.84,5.29h17.08a8.32,8.32,0,0,0-2.83-5.25,8.48,8.48,0,0,0-5.67-2A8.65,8.65,0,0,0,137.36,103.21Zm8.31-22.75H156.5l-11.67,9.28H137Z"/><path class="cls-3" d="M246.34,83.74v45.11H235.9v-18.5H215.41v18.5H205V83.74h10.44v17.79H235.9V83.74Z"/><path class="cls-3" d="M282.69,97.5q4.32,3.83,4.32,11.57v19.79H277.6v-4.32q-2.84,4.83-10.57,4.83A16.4,16.4,0,0,1,260.1,128a10.32,10.32,0,0,1-4.48-3.74,9.72,9.72,0,0,1-1.55-5.41,9,9,0,0,1,3.64-7.6q3.64-2.77,11.25-2.77h8a6.41,6.41,0,0,0-2-5.06q-2-1.77-6-1.77a17.49,17.49,0,0,0-5.45.87,14.43,14.43,0,0,0-4.54,2.35l-3.61-7a21.81,21.81,0,0,1,6.8-3.09,30.49,30.49,0,0,1,8.15-1.1Q278.37,93.67,282.69,97.5Zm-8.57,23.91A6.53,6.53,0,0,0,277,117.9v-3.54h-6.9q-6.19,0-6.19,4.06a3.61,3.61,0,0,0,1.51,3.06,6.82,6.82,0,0,0,4.16,1.13A8.76,8.76,0,0,0,274.12,121.41Z"/><path class="cls-3" d="M303.28,127.08a17.12,17.12,0,0,1-6.9-6.35,18.36,18.36,0,0,1,0-18.43,17.13,17.13,0,0,1,6.9-6.35,21.32,21.32,0,0,1,10-2.29A19.3,19.3,0,0,1,322.81,96a13.58,13.58,0,0,1,6,6.54l-7.8,4.19a8.53,8.53,0,0,0-7.8-4.77,8.82,8.82,0,0,0-6.51,2.58,10.86,10.86,0,0,0,0,14,8.82,8.82,0,0,0,6.51,2.58,8.43,8.43,0,0,0,7.8-4.77l7.8,4.25a13.85,13.85,0,0,1-6,6.44,19.08,19.08,0,0,1-9.57,2.32A21.31,21.31,0,0,1,303.28,127.08Z"/><path class="cls-3" d="M367.89,114.36H341.66a8.16,8.16,0,0,0,3.35,5.09,11.1,11.1,0,0,0,6.57,1.87,13.32,13.32,0,0,0,4.8-.81,11.64,11.64,0,0,0,3.9-2.55l5.35,5.8q-4.9,5.61-14.31,5.61A22.63,22.63,0,0,1,341,127.08a16.76,16.76,0,0,1-7-6.35,17.48,17.48,0,0,1-2.45-9.22,17.72,17.72,0,0,1,2.42-9.18A16.93,16.93,0,0,1,340.6,96a20.55,20.55,0,0,1,18.66-.1,16,16,0,0,1,6.48,6.28,18.75,18.75,0,0,1,2.35,9.51Q368.08,111.84,367.89,114.36Zm-23.52-11.15a8.23,8.23,0,0,0-2.84,5.29h17.08a8.32,8.32,0,0,0-2.83-5.25,8.48,8.48,0,0,0-5.67-2A8.65,8.65,0,0,0,344.37,103.21Z"/><path class="cls-3" d="M429.53,97.5q3.83,3.83,3.83,11.5v19.85H423.31v-18.3q0-4.12-1.71-6.16a6,6,0,0,0-4.87-2,7.17,7.17,0,0,0-5.61,2.29q-2.06,2.29-2.06,6.8v17.4H399v-18.3q0-8.18-6.57-8.19a7.1,7.1,0,0,0-5.54,2.29q-2.06,2.29-2.06,6.8v17.4H374.79V94.18h9.6v4a12.7,12.7,0,0,1,4.74-3.35,15.94,15.94,0,0,1,6.16-1.16,14.91,14.91,0,0,1,6.64,1.45,11.78,11.78,0,0,1,4.77,4.22,14.23,14.23,0,0,1,5.38-4.19,17,17,0,0,1,7.12-1.48Q425.7,93.67,429.53,97.5Z"/><path class="cls-3" d="M449.45,127.08a17,17,0,0,1-6.8-6.35,18.56,18.56,0,0,1,0-18.43,17,17,0,0,1,6.8-6.35,22.18,22.18,0,0,1,19.62,0,17.08,17.08,0,0,1,6.77,6.35,18.57,18.57,0,0,1,0,18.43,17.07,17.07,0,0,1-6.77,6.35,22.18,22.18,0,0,1-19.62,0Zm16.18-8.57a11.09,11.09,0,0,0,0-14,8.37,8.37,0,0,0-6.35-2.61,8.47,8.47,0,0,0-6.38,2.61,11,11,0,0,0,0,14,8.47,8.47,0,0,0,6.38,2.61A8.37,8.37,0,0,0,465.62,118.51Z"/><path class="cls-3" d="M488.21,128.31a22,22,0,0,1-6.57-2.67l3.35-7.22a21,21,0,0,0,5.61,2.42,23.49,23.49,0,0,0,6.44.93q6.38,0,6.38-3.16a2.24,2.24,0,0,0-1.74-2.13,25.91,25.91,0,0,0-5.35-1.1,51.28,51.28,0,0,1-7-1.48,10.88,10.88,0,0,1-4.8-3,8.43,8.43,0,0,1-2-6.06,9.48,9.48,0,0,1,1.9-5.83,12.23,12.23,0,0,1,5.54-4,23.69,23.69,0,0,1,8.6-1.42,33.83,33.83,0,0,1,7.32.81,20.51,20.51,0,0,1,6,2.22l-3.35,7.15a20,20,0,0,0-10-2.58,10.17,10.17,0,0,0-4.83.9,2.65,2.65,0,0,0-1.61,2.32,2.3,2.3,0,0,0,1.74,2.26,30.79,30.79,0,0,0,5.54,1.22,59.53,59.53,0,0,1,7,1.51,10.46,10.46,0,0,1,4.7,2.93,8.32,8.32,0,0,1,2,5.93,9.15,9.15,0,0,1-1.93,5.74,12.34,12.34,0,0,1-5.64,3.9,25.13,25.13,0,0,1-8.8,1.39A33.67,33.67,0,0,1,488.21,128.31Z"/><path class="cls-3" d="M529.17,107.65a29.64,29.64,0,0,1,4.41-4.83,25.73,25.73,0,0,0,3.13-3.25,4.84,4.84,0,0,0,1-3,4.42,4.42,0,0,0-1.9-3.77,8.41,8.41,0,0,0-5.06-1.39,11.24,11.24,0,0,0-5.38,1.26,11.46,11.46,0,0,0-4,3.51l-7.8-4.58a18.06,18.06,0,0,1,7.31-6.38A24.6,24.6,0,0,1,531.84,83q7.41,0,11.89,3.16a10.13,10.13,0,0,1,4.48,8.76,11.53,11.53,0,0,1-.87,4.64,12.27,12.27,0,0,1-2.13,3.38Q544,104.3,542,106.11a27,27,0,0,0-3.48,3.58,5.65,5.65,0,0,0-1.1,3.51h-9.73A9.52,9.52,0,0,1,529.17,107.65Zm-1,20a5.55,5.55,0,0,1-1.77-4.16,5.4,5.4,0,0,1,1.74-4.09,6.84,6.84,0,0,1,8.89,0,5.4,5.4,0,0,1,1.74,4.09,5.56,5.56,0,0,1-1.77,4.16,6.56,6.56,0,0,1-8.83,0Z"/><line class="cls-1" x1="187.12" y1="147.95" x2="603.48" y2="147.95"/></g></svg>