<svg xmlns="http://www.w3.org/2000/svg" viewBox="0 0 183 158"><defs><style>.cls-1{fill:#5a6e7f;}</style></defs><title>iconos</title><g id="Layer_1" data-name="Layer 1"><path class="cls-1" d="M136.06,57.36a44.72,44.72,0,0,0-89.25,0,42.68,42.68,0,0,0,5.39,85h64.94a3.35,3.35,0,0,0,0-6.69H52.2a36,36,0,0,1-2-71.92,3.35,3.35,0,0,0,3.17-3.34c0-.07,0-.13,0-.2a38,38,0,0,1,76.06,0c0,.06,0,.13,0,.18a3.34,3.34,0,0,0,3.18,3.34,36,36,0,0,1,20.87,63.87,3.34,3.34,0,1,0,4.22,5.19,42.67,42.67,0,0,0-21.67-75.47Z"/><path class="cls-1" d="M88.09,75.65v42.66a3.35,3.35,0,0,0,6.69,0V75.65a3.35,3.35,0,0,0-6.69,0Z"/><path class="cls-1" d="M110.57,81.86a3.34,3.34,0,0,0,2.37-5.71L93.8,57a3.35,3.35,0,0,0-4.73,0L69.94,76.15a3.35,3.35,0,0,0,4.73,4.73L91.44,64.11,108.2,80.88A3.34,3.34,0,0,0,110.57,81.86Z"/></g></svg>